<svg class="svg-icon" width="24" height="24" aria-hidden="true" role="img" focusable="false" version="1.1" viewBox="0 0 45 45" xmlns="http://www.w3.org/2000/svg">
	<path d="m 21,6.25 c -1.578883,0.2995221 -2.244785,2.2371755 -3.231648,3 -1.245973,0.3608463 -1.389475,-1.2102907 -2.217665,-1.8044139 -1.111691,-1.6692042 -3.619766,-0.5930971 -2.77362,1.4280432 0.641044,1.4958877 0.313732,2.9970737 -0.903526,4.1473947 -1.281747,1.524643 -2.0706504,3.406421 -3.1086053,5.100059 -1.2791762,2.45436 -2.7968723,4.854366 -3.492738,7.555261 -0.1379763,1.921533 0.3460528,4.478997 2.498255,5.04078 1.203162,0.406208 2.5710273,-0.529483 2.9075783,0.959486 1.474148,0.501992 2.760065,-0.649246 3.469543,-1.823904 1.483193,-2.152182 4.001054,-3.173785 5.870167,-4.928104 0.824313,-0.461822 2.211706,-2.436103 2.462639,-2.013173 -0.08488,2.914075 -1.531745,5.622079 -3.681509,7.543067 -2.139371,1.92184 -4.264119,4.250856 -4.478511,7.269501 -0.410875,1.180237 0.234173,2.352932 1.532786,2.026003 7.382285,0 14.764569,0 22.146854,0 1.46277,-0.696454 0.498785,-2.940149 0.772123,-4.309555 C 38.634129,29.097038 38.103725,22.453355 34.899166,16.831492 32.690244,12.88154 28.549642,10.27458 24.127489,9.5574532 21.749005,10.023187 23.244441,6.715948 21.231173,6.273762 Z m 3.550781,4.150391 c 4.010589,0.450085 7.445057,3.173979 9.35913,6.643709 3.233228,5.823283 3.739465,12.675404 3.681877,19.21195 -0.11526,1.021191 0.121629,2.397754 -0.237363,3.24395 -0.718402,0 -1.436804,0 -2.155206,0 0.333168,-5.820432 0.365491,-11.799242 -1.3264,-17.432668 -1.291852,-4.091329 -3.883923,-8.193283 -8.121631,-9.66491 -0.746999,-0.349139 -2.134885,-0.283773 -1.397982,-1.367397 0.06586,-0.211545 0.131717,-0.423089 0.197575,-0.634634 z m -9.34375,3.027343 c 1.920399,0.597663 0.360001,3.241427 -0.741658,3.972667 -2.125944,0.811461 -1.73617,-2.272246 -0.624355,-3.16261 0.329682,-0.417393 0.794865,-0.84379 1.366013,-0.810057 z M 9,24.25 c 2.094843,-0.02113 1.140528,3.413248 -0.6464937,2.327825 C 7.2785951,25.984991 7.7598167,24.187174 9,24.25 Z"/>
</svg>