<?xml version="1.0" encoding="utf-8"?>
<svg height="256" version="1.1" viewBox="0 0 360 360" width="256"
  xmlns="http://www.w3.org/2000/svg"
  xmlns:xlink="http://www.w3.org/1999/xlink">
  <defs>
    <g class="white pawn" id="white-pawn">
      <path d="M22 9c-2.21 0-4 1.79-4 4 0 .89.29 1.71.78 2.38-1.95 1.12-3.28 3.21-3.28 5.62 0 2.03.94 3.84 2.41 5.03-3 1.06-7.41 5.55-7.41 13.47h23c0-7.92-4.41-12.41-7.41-13.47 1.47-1.19 2.41-3 2.41-5.03 0-2.41-1.33-4.5-3.28-5.62.49-.67.78-1.49.78-2.38 0-2.21-1.79-4-4-4z" fill="#fff" stroke="#000" stroke-linecap="round" stroke-width="1.5" />
    </g>
    <g class="black pawn" id="black-pawn">
      <path d="M22 9c-2.21 0-4 1.79-4 4 0 .89.29 1.71.78 2.38-1.95 1.12-3.28 3.21-3.28 5.62 0 2.03.94 3.84 2.41 5.03-3 1.06-7.41 5.55-7.41 13.47h23c0-7.92-4.41-12.41-7.41-13.47 1.47-1.19 2.41-3 2.41-5.03 0-2.41-1.33-4.5-3.28-5.62.49-.67.78-1.49.78-2.38 0-2.21-1.79-4-4-4z" stroke="#000" stroke-linecap="round" stroke-width="1.5" />
    </g>
  </defs>
  <rect class="square dark a1" fill="#d18b47" height="45" stroke="none" width="45" x="0" y="315" />
  <rect class="square light b1" fill="#ffce9e" height="45" stroke="none" width="45" x="45" y="315" />
  <rect class="square dark c1" fill="#d18b47" height="45" stroke="none" width="45" x="90" y="315" />
  <rect class="square light d1" fill="#ffce9e" height="45" stroke="none" width="45" x="135" y="315" />
  <rect class="square dark e1" fill="#d18b47" height="45" stroke="none" width="45" x="180" y="315" />
  <rect class="square light f1" fill="#ffce9e" height="45" stroke="none" width="45" x="225" y="315" />
  <rect class="square dark g1" fill="#d18b47" height="45" stroke="none" width="45" x="270" y="315" />
  <rect class="square light h1" fill="#ffce9e" height="45" stroke="none" width="45" x="315" y="315" />
  <rect class="square light a2" fill="#ffce9e" height="45" stroke="none" width="45" x="0" y="270" />
  <rect class="square dark b2" fill="#d18b47" height="45" stroke="none" width="45" x="45" y="270" />
  <rect class="square light c2" fill="#ffce9e" height="45" stroke="none" width="45" x="90" y="270" />
  <rect class="square dark d2" fill="#d18b47" height="45" stroke="none" width="45" x="135" y="270" />
  <rect class="square light e2" fill="#ffce9e" height="45" stroke="none" width="45" x="180" y="270" />
  <rect class="square dark f2" fill="#d18b47" height="45" stroke="none" width="45" x="225" y="270" />
  <rect class="square light g2" fill="#ffce9e" height="45" stroke="none" width="45" x="270" y="270" />
  <rect class="square dark h2" fill="#d18b47" height="45" stroke="none" width="45" x="315" y="270" />
  <rect class="square dark a3" fill="#d18b47" height="45" stroke="none" width="45" x="0" y="225" />
  <rect class="square light b3" fill="#ffce9e" height="45" stroke="none" width="45" x="45" y="225" />
  <rect class="square dark c3" fill="#d18b47" height="45" stroke="none" width="45" x="90" y="225" />
  <rect class="square light d3" fill="#ffce9e" height="45" stroke="none" width="45" x="135" y="225" />
  <rect class="square dark e3" fill="#d18b47" height="45" stroke="none" width="45" x="180" y="225" />
  <rect class="square light f3" fill="#ffce9e" height="45" stroke="none" width="45" x="225" y="225" />
  <rect class="square dark g3" fill="#d18b47" height="45" stroke="none" width="45" x="270" y="225" />
  <rect class="square light h3" fill="#ffce9e" height="45" stroke="none" width="45" x="315" y="225" />
  <rect class="square light a4" fill="#ffce9e" height="45" stroke="none" width="45" x="0" y="180" />
  <rect class="square dark b4" fill="#d18b47" height="45" stroke="none" width="45" x="45" y="180" />
  <rect class="square light c4" fill="#ffce9e" height="45" stroke="none" width="45" x="90" y="180" />
  <rect class="square dark d4" fill="#d18b47" height="45" stroke="none" width="45" x="135" y="180" />
  <rect class="square light e4" fill="#ffce9e" height="45" stroke="none" width="45" x="180" y="180" />
  <rect class="square dark f4" fill="#d18b47" height="45" stroke="none" width="45" x="225" y="180" />
  <rect class="square light g4" fill="#ffce9e" height="45" stroke="none" width="45" x="270" y="180" />
  <rect class="square dark h4" fill="#d18b47" height="45" stroke="none" width="45" x="315" y="180" />
  <rect class="square dark a5" fill="#d18b47" height="45" stroke="none" width="45" x="0" y="135" />
  <rect class="square light b5" fill="#ffce9e" height="45" stroke="none" width="45" x="45" y="135" />
  <rect class="square dark c5" fill="#d18b47" height="45" stroke="none" width="45" x="90" y="135" />
  <rect class="square light d5" fill="#ffce9e" height="45" stroke="none" width="45" x="135" y="135" />
  <use transform="translate(135, 135)" xlink:href="#white-pawn" />
  <rect class="square dark e5" fill="#d18b47" height="45" stroke="none" width="45" x="180" y="135" />
  <use transform="translate(180, 135)" xlink:href="#black-pawn" />
  <rect class="square light f5" fill="#ffce9e" height="45" stroke="none" width="45" x="225" y="135" />
  <rect class="square dark g5" fill="#d18b47" height="45" stroke="none" width="45" x="270" y="135" />
  <rect class="square light h5" fill="#ffce9e" height="45" stroke="none" width="45" x="315" y="135" />
  <rect class="square light a6" fill="#ffce9e" height="45" stroke="none" width="45" x="0" y="90" />
  <rect class="square dark b6" fill="#d18b47" height="45" stroke="none" width="45" x="45" y="90" />
  <rect class="square light c6" fill="#ffce9e" height="45" stroke="none" width="45" x="90" y="90" />
  <rect class="square dark d6" fill="#d18b47" height="45" stroke="none" width="45" x="135" y="90" />
  <rect class="square light e6" fill="#ffce9e" height="45" stroke="none" width="45" x="180" y="90" />
  <rect class="square dark f6" fill="#d18b47" height="45" stroke="none" width="45" x="225" y="90" />
  <rect class="square light g6" fill="#ffce9e" height="45" stroke="none" width="45" x="270" y="90" />
  <rect class="square dark h6" fill="#d18b47" height="45" stroke="none" width="45" x="315" y="90" />
  <rect class="square dark a7" fill="#d18b47" height="45" stroke="none" width="45" x="0" y="45" />
  <rect class="square light b7" fill="#ffce9e" height="45" stroke="none" width="45" x="45" y="45" />
  <rect class="square dark c7" fill="#d18b47" height="45" stroke="none" width="45" x="90" y="45" />
  <rect class="square light d7" fill="#ffce9e" height="45" stroke="none" width="45" x="135" y="45" />
  <rect class="square dark e7" fill="#d18b47" height="45" stroke="none" width="45" x="180" y="45" />
  <rect class="square light f7" fill="#ffce9e" height="45" stroke="none" width="45" x="225" y="45" />
  <rect class="square dark g7" fill="#d18b47" height="45" stroke="none" width="45" x="270" y="45" />
  <rect class="square light h7" fill="#ffce9e" height="45" stroke="none" width="45" x="315" y="45" />
  <rect class="square light a8" fill="#ffce9e" height="45" stroke="none" width="45" x="0" y="0" />
  <rect class="square dark b8" fill="#d18b47" height="45" stroke="none" width="45" x="45" y="0" />
  <rect class="square light c8" fill="#ffce9e" height="45" stroke="none" width="45" x="90" y="0" />
  <rect class="square dark d8" fill="#d18b47" height="45" stroke="none" width="45" x="135" y="0" />
  <rect class="square light e8" fill="#ffce9e" height="45" stroke="none" width="45" x="180" y="0" />
  <rect class="square dark f8" fill="#d18b47" height="45" stroke="none" width="45" x="225" y="0" />
  <rect class="square light g8" fill="#ffce9e" height="45" stroke="none" width="45" x="270" y="0" />
  <rect class="square dark h8" fill="#d18b47" height="45" stroke="none" width="45" x="315" y="0" />
  <line class="arrow" opacity="0.5" stroke="#888" stroke-linecap="butt" stroke-width="9.0" x1="202.5" x2="202.5" y1="67.5" y2="119.25" />
  <polygon class="arrow" fill="#888" opacity="0.5" points="202.5,153.0 219.375,119.25 185.625,119.25" />
</svg>