<?xml version="1.0" encoding="UTF-8" standalone="no"?>
<svg
   xmlns:dc="http://purl.org/dc/elements/1.1/"
   xmlns:cc="http://creativecommons.org/ns#"
   xmlns:rdf="http://www.w3.org/1999/02/22-rdf-syntax-ns#"
   xmlns:svg="http://www.w3.org/2000/svg"
   xmlns="http://www.w3.org/2000/svg"
   xmlns:sodipodi="http://sodipodi.sourceforge.net/DTD/sodipodi-0.dtd"
   xmlns:inkscape="http://www.inkscape.org/namespaces/inkscape"
   inkscape:export-ydpi="396"
   inkscape:export-xdpi="396"
   inkscape:version="1.0.2 (e86c8708, 2021-01-15)"
   sodipodi:docname="logo.svg"
   id="svg101"
   version="1.1"
   height="192"
   width="256"
   viewBox="0 0 256 128">
  <metadata
     id="metadata107">
    <rdf:RDF>
      <cc:Work
         rdf:about="">
        <dc:format>image/svg+xml</dc:format>
        <dc:type
           rdf:resource="http://purl.org/dc/dcmitype/StillImage" />
        <dc:title>Bike Walk Life</dc:title>
      </cc:Work>
    </rdf:RDF>
  </metadata>
  <defs
     id="defs105" />
  <sodipodi:namedview
     pagecolor="#ffffff"
     bordercolor="#666666"
     borderopacity="1"
     objecttolerance="10"
     gridtolerance="10"
     guidetolerance="10"
     inkscape:pageopacity="0"
     inkscape:pageshadow="2"
     inkscape:window-width="1920"
     inkscape:window-height="968"
     id="namedview103"
     showgrid="false"
     inkscape:zoom="3.2500575"
     inkscape:cx="112.47797"
     inkscape:cy="104.28558"
     inkscape:window-x="-1"
     inkscape:window-y="26"
     inkscape:window-maximized="0"
     inkscape:current-layer="svg101"
     inkscape:document-rotation="0"
     scale-x="1"
     showguides="true"
     inkscape:guide-bbox="true"
     inkscape:lockguides="false"
     inkscape:pagecheckerboard="true" />
  <title
     id="logo-title">Bike Walk Life</title>
  <desc
     id="desc91">Bike Walk Life site logo.</desc>
  <g
     id="g143">
    <g
       id="text96"
       style="fill:#457b9d;fill-opacity:1">
      <path
         d="M 79.027027,70.453322 H 74.38703 L 68.2537,102.7733 61.000371,70.453322 H 55.613708 L 48.520379,102.7733 42.600382,70.453322 h -4.959997 l 7.466662,36.746648 h 6.346663 l 6.826663,-30.773319 6.773329,30.773319 h 6.506663 z"
         id="path145" />
      <path
         d="M 102.80701,100.63997 V 87.786645 c 0,-5.866664 -3.09333,-9.333328 -9.866659,-9.333328 -3.146665,0 -6.239996,0.64 -9.706661,1.919999 l 1.226666,3.573331 c 2.879998,-0.959999 5.49333,-1.493332 7.573329,-1.493332 3.893331,0 5.866663,1.493332 5.866663,5.546663 v 2.079999 H 93.58035 c -7.839995,0 -12.373326,3.253331 -12.373326,9.279994 0,5.013329 3.359998,8.479999 8.959995,8.479999 3.413331,0 6.399996,-1.28 8.373328,-4.21333 0.853333,2.77333 2.666663,3.89333 5.493333,4.21333 l 1.12,-3.41334 c -1.44,-0.53333 -2.34667,-1.33333 -2.34667,-3.78666 z m -11.519992,3.52 c -3.199998,0 -4.85333,-1.76 -4.85333,-5.066665 0,-3.839998 2.613332,-5.759997 7.786662,-5.759997 h 3.679998 v 6.45333 c -1.599999,2.933332 -3.733331,4.373332 -6.61333,4.373332 z"
         id="path147" />
      <path
         d="m 118.53617,107.83997 c 1.44,0 2.82666,-0.37334 3.89333,-0.96 l -1.28,-3.41333 c -0.53333,0.21333 -1.12,0.32 -1.81333,0.32 -1.28,0 -1.76,-0.74667 -1.76,-2.24 V 67.19999 l -4.90667,0.586667 V 101.6533 c 0,4 2.29334,6.18667 5.86667,6.18667 z"
         id="path149" />
      <path
         d="m 133.46783,67.19999 -4.90667,0.586667 v 39.413313 h 4.90667 z m 16.15999,11.893327 h -5.49333 l -10.34666,12.746659 11.14666,15.359994 h 5.86666 L 139.28116,91.519976 Z"
         id="path151" />
    </g>
    <g
       id="text111"
       style="fill:#1d3557;fill-opacity:1">
      <path
         d="m 21.639324,42.186654 c 3.573331,-0.746666 6.879996,-3.519998 6.879996,-8.053329 0,-6.399996 -5.333331,-9.279994 -14.399992,-9.279994 H 5.426 v 36.746645 h 10.133327 c 8.533329,0 14.559992,-2.666665 14.559992,-10.453328 0,-6.239996 -4.213331,-8.213328 -8.479995,-8.959994 z M 14.652661,28.853328 c 5.439997,0 8.693328,1.12 8.693328,5.65333 0,3.893331 -3.199998,5.919997 -7.306662,5.919997 H 10.492664 V 28.853328 Z m 0.906666,28.693317 H 10.492664 V 44.319986 h 6.026663 c 4.426664,0 8.266661,1.653332 8.266661,6.826662 0,5.333331 -3.893331,6.399997 -9.226661,6.399997 z"
         id="path154" />
      <path
         d="m 39.955145,20 c -2.026665,0 -3.413331,1.44 -3.413331,3.359998 0,1.866666 1.386666,3.306665 3.413331,3.306665 2.079999,0 3.466665,-1.439999 3.466665,-3.306665 C 43.42181,21.44 42.035144,20 39.955145,20 Z m 2.506665,13.493326 h -4.906664 v 28.10665 h 4.906664 z"
         id="path156" />
      <path
         d="m 57.461803,21.599999 -4.906664,0.586667 v 39.41331 h 4.906664 z m 16.15999,11.893327 h -5.49333 l -10.346661,12.746659 11.14666,15.359991 h 5.866664 L 63.275132,45.919985 Z"
         id="path158" />
      <path
         d="m 100.55261,46.719984 c 0,-8.586661 -4.000002,-13.866658 -11.573331,-13.866658 -7.253329,0 -11.679993,6.239996 -11.679993,14.986658 0,8.906661 4.586664,14.399991 12.42666,14.399991 3.893331,0 7.039995,-1.333332 9.813327,-3.519998 l -2.133332,-2.933331 c -2.453332,1.706665 -4.533331,2.453332 -7.306662,2.453332 -4.053331,0 -7.093329,-2.506666 -7.573329,-9.013328 h 17.91999 c 0.0533,-0.64 0.10667,-1.546666 0.10667,-2.506666 z M 95.699275,45.599985 H 82.52595 c 0.373333,-6.239996 2.826665,-8.853328 6.559996,-8.853328 4.426664,0 6.613329,3.039998 6.613329,8.533328 z"
         id="path160" />
    </g>
    <g
       id="text96-5"
       style="fill:#da1b2b;fill-opacity:1">
      <path
         d="M 175.36667,70.653334 H 170.3 v 36.746646 h 19.57333 l 0.58666,-4.42667 h -15.09332 z"
         id="path163" />
      <path
         d="m 198.99582,65.800003 c -2.02666,0 -3.41333,1.44 -3.41333,3.359998 0,1.866666 1.38667,3.306665 3.41333,3.306665 2.08,0 3.46667,-1.439999 3.46667,-3.306665 0,-1.919998 -1.38667,-3.359998 -3.46667,-3.359998 z m 2.50667,13.493326 h -4.90667 v 28.106651 h 4.90667 z"
         id="path165" />
      <path
         d="m 221.14248,71.346667 c 1.44,0 3.09333,0.266666 4.90666,1.066666 l 1.54667,-3.573331 c -2.24,-0.96 -4.05333,-1.44 -6.72,-1.44 -5.70666,0 -8.79999,3.359998 -8.79999,8.053329 v 3.839998 h -5.01334 v 3.786664 h 5.01334 v 24.319987 h 4.90666 V 83.079993 h 6.29333 l 0.53333,-3.786664 h -6.82666 v -3.893331 c 0,-2.719999 1.06667,-4.053331 4.16,-4.053331 z"
         id="path167" />
      <path
         d="m 250.21829,92.519988 c 0,-8.586662 -4,-13.866659 -11.57333,-13.866659 -7.25333,0 -11.67999,6.239996 -11.67999,14.986658 0,8.906663 4.58666,14.399993 12.42666,14.399993 3.89333,0 7.04,-1.33333 9.81333,-3.52 l -2.13333,-2.93333 c -2.45334,1.70666 -4.53334,2.45333 -7.30667,2.45333 -4.05333,0 -7.09333,-2.50666 -7.57333,-9.013327 h 17.91999 c 0.0533,-0.64 0.10667,-1.546666 0.10667,-2.506665 z m -4.85333,-1.12 h -13.17333 c 0.37334,-6.239996 2.82667,-8.853328 6.56,-8.853328 4.42666,0 6.61333,3.039998 6.61333,8.533328 z"
         id="path169" />
    </g>
  </g>
</svg>
