<?xml version="1.0" encoding="UTF-8" standalone="no"?>
<!DOCTYPE svg PUBLIC "-//W3C//DTD SVG 1.1//EN" "http://www.w3.org/Graphics/SVG/1.1/DTD/svg11.dtd">
<svg width="100%" height="100%" viewBox="0 0 230 153" version="1.1" xmlns="http://www.w3.org/2000/svg" xmlns:xlink="http://www.w3.org/1999/xlink" xml:space="preserve" xmlns:serif="http://www.serif.com/" style="fill-rule:evenodd;clip-rule:evenodd;stroke-linejoin:round;stroke-miterlimit:2;">
    <rect id="Square" x="-4.11" y="-20.12" width="240" height="240" style="fill:none;"/>
    <clipPath id="_clip1">
        <rect id="Square1" serif:id="Square" x="-4.11" y="-20.12" width="240" height="240"/>
    </clipPath>
    <g clip-path="url(#_clip1)">
        <rect x="-4.11" y="-20.12" width="240" height="240" style="fill:#fff;"/>
        <g>
            <g>
                <g id="Paper">
                    <path d="M75.781,142.677c0.542,-0.182 1.129,0.109 1.312,0.651c0.182,0.542 -0.11,1.129 -0.652,1.312c-2.726,0.982 -5.528,1.64 -8.369,2.085c-4.226,0.663 -8.535,0.835 -12.802,0.844c-1.747,0.005 -3.949,-0.024 -6.085,-0.167c-1.467,-0.098 -2.901,-0.256 -4.148,-0.484c-3.191,-0.59 -6.503,-1.331 -9.739,-2.296c-3.301,-0.985 -6.516,-2.21 -9.46,-3.7c-3.549,-1.836 -7.049,-4.265 -10.104,-7.18c-3.051,-2.911 -5.653,-6.298 -7.55,-9.915c-0.75,-1.449 -1.42,-3.114 -1.991,-4.835c-0.835,-2.52 -1.474,-5.151 -1.95,-7.32c-1.293,-5.93 -2.107,-11.547 -2.536,-17.195c-0.429,-5.631 -0.482,-11.284 -0.249,-17.304c0.01,-0.591 0.498,-1.063 1.089,-1.053c0.591,0.011 1.063,0.499 1.053,1.09c0.024,5.923 0.309,11.474 0.968,16.988c0.654,5.478 1.684,10.91 3.191,16.628c0.534,2.039 1.249,4.508 2.125,6.871c0.555,1.499 1.177,2.953 1.877,4.21c1.758,3.201 4.191,6.134 6.928,8.728c2.778,2.633 5.879,4.92 9.073,6.624c2.696,1.471 5.659,2.684 8.697,3.709c3.077,1.038 6.227,1.89 9.271,2.58c1.123,0.256 2.419,0.451 3.746,0.601c2.052,0.23 4.171,0.359 5.855,0.433c4.127,0.175 8.302,0.201 12.417,-0.263c2.717,-0.306 5.404,-0.819 8.033,-1.642Z" style="fill:#007d7d;"/>
                    <path d="M24.367,79.89c0.024,-0.571 0.506,-1.016 1.077,-0.992c0.571,0.023 1.016,0.506 0.992,1.077c0.004,0.576 1.26,5.134 2.595,9.681c1.325,4.518 2.759,8.984 3.013,9.489c0.469,1.091 -0.036,2.356 -1.126,2.825c-1.09,0.468 -2.356,-0.037 -2.824,-1.127c-0.235,-0.648 -1.42,-6.974 -2.4,-12.524c-0.738,-4.185 -1.373,-7.905 -1.327,-8.429Z" style="fill:#007d7d;"/>
                    <path d="M58.427,70.046c-0.207,-0.826 0.296,-1.665 1.122,-1.872c0.826,-0.207 1.664,0.296 1.871,1.122c1.41,4.955 2.458,9.883 3.277,14.861c0.816,4.96 1.389,9.957 1.848,15.073c0.08,1.377 -0.974,2.56 -2.352,2.64c-1.377,0.079 -2.56,-0.975 -2.639,-2.352c-0.13,-5.024 -0.378,-9.939 -0.865,-14.832c-0.487,-4.887 -1.199,-9.739 -2.262,-14.64Z" style="fill:#007d7d;"/>
                    <path d="M210.474,10.965c0.537,0.197 0.813,0.792 0.617,1.328c-0.197,0.537 -0.792,0.813 -1.328,0.617c-4.925,-1.77 -9.871,-3.477 -14.903,-4.879c-3.332,-0.929 -6.701,-1.723 -10.126,-2.314c-8.004,-1.379 -16.01,-1.974 -24.009,-1.866c-8.002,0.109 -15.996,0.922 -23.974,2.351c-3.262,0.586 -6.646,1.347 -9.955,2.34c-3.271,0.983 -6.468,2.195 -9.396,3.701c-4.136,2.125 -7.926,4.941 -11.392,8.126c-3.508,3.224 -6.68,6.829 -9.538,10.492c-2.015,2.584 -4.16,5.586 -5.851,8.767c-1.086,2.042 -1.982,4.158 -2.516,6.283c-0.927,3.666 -1.824,7.678 -1.898,11.641c-0.046,2.495 0.241,4.969 1.095,7.308c0.6,1.651 1.61,3.033 2.766,4.307c1.989,2.193 4.406,4.08 6.39,6.193c1.59,1.692 2.606,3.646 2.954,5.687c0.358,2.104 0.015,4.314 -1.206,6.475c-0.348,0.614 -0.745,1.203 -1.182,1.762c-0.432,0.553 -0.903,1.076 -1.405,1.562c-0.563,0.546 -1.166,1.049 -1.796,1.519c-0.601,0.448 -1.226,0.867 -1.86,1.264c-0.718,0.451 -1.457,0.866 -2.211,1.256c-0.733,0.38 -1.48,0.735 -2.231,1.076c-2.028,0.911 -4.217,1.713 -6.449,2.423c-3.309,1.051 -6.71,1.901 -9.791,2.618c-7.863,1.807 -15.633,3.001 -23.395,3.138c-7.814,0.137 -15.618,-0.789 -23.497,-3.22c-6.454,-1.991 -13.649,-5.879 -18.205,-11.425c-3.179,-3.87 -5.105,-8.529 -4.716,-13.918c0.17,-2.414 0.919,-4.531 2.062,-6.413c1.643,-2.706 4.114,-4.926 6.83,-6.833c4.784,-3.366 10.267,-5.178 15.959,-5.901c5.567,-0.707 11.335,-0.373 16.821,0.547c3.229,0.539 7.419,1.473 10.908,3.242c2.56,1.298 4.743,3.05 6.023,5.359c1.408,2.538 1.379,5.193 0.482,7.675c-1.233,3.41 -4.165,6.481 -6.952,8.287c-2.86,1.855 -6.147,3.17 -9.612,3.942c-3.341,0.744 -6.849,0.984 -10.291,0.723c-1.956,-0.149 -4.239,-0.625 -6.037,-1.711c-1.353,-0.817 -2.443,-1.967 -3.02,-3.534c-0.574,-1.559 -0.42,-2.987 0.15,-4.255c0.776,-1.724 2.4,-3.139 3.909,-4.082c1.239,-0.774 3.287,-1.495 5.388,-1.907c2.164,-0.424 4.377,-0.507 5.837,-0.102c0.762,0.212 1.209,1.001 0.997,1.763c-0.211,0.762 -1.001,1.209 -1.763,0.997c-1.13,-0.313 -2.843,-0.176 -4.52,0.154c-1.718,0.337 -3.406,0.893 -4.419,1.527c-0.907,0.567 -1.9,1.339 -2.526,2.305c-0.483,0.746 -0.722,1.623 -0.359,2.607c0.436,1.182 1.398,1.927 2.499,2.429c1.29,0.588 2.779,0.844 4.081,0.943c3.161,0.238 6.38,0.018 9.448,-0.666c3.124,-0.698 6.091,-1.877 8.669,-3.55c1.94,-1.261 3.982,-3.239 5.2,-5.516c1.11,-2.073 1.532,-4.411 0.303,-6.62c-1.013,-1.821 -2.78,-3.15 -4.802,-4.172c-3.22,-1.628 -7.093,-2.461 -10.073,-2.955c-5.208,-0.861 -10.682,-1.178 -15.964,-0.493c-5.209,0.676 -10.23,2.329 -14.599,5.424c-1.969,1.397 -3.81,2.962 -5.19,4.818c-1.308,1.758 -2.189,3.782 -2.339,6.174c-0.276,4.527 1.413,8.412 4.122,11.626c4.205,4.989 10.83,8.38 16.723,10.106c7.522,2.204 14.953,2.969 22.378,2.737c7.485,-0.234 14.963,-1.488 22.524,-3.33c2.975,-0.715 6.259,-1.559 9.453,-2.596c2.07,-0.672 4.101,-1.425 5.979,-2.282c0.683,-0.31 1.362,-0.632 2.029,-0.977c0.648,-0.336 1.284,-0.692 1.902,-1.08c0.536,-0.336 1.065,-0.689 1.573,-1.068c0.482,-0.36 0.945,-0.743 1.375,-1.16c0.36,-0.349 0.699,-0.725 1.01,-1.123c0.307,-0.393 0.586,-0.807 0.831,-1.238c0.695,-1.216 0.922,-2.456 0.727,-3.645c-0.208,-1.26 -0.863,-2.45 -1.836,-3.501c-2.349,-2.536 -5.293,-4.77 -7.443,-7.542c-1.044,-1.345 -1.915,-2.807 -2.499,-4.455c-0.996,-2.825 -1.336,-5.8 -1.248,-8.8c0.124,-4.267 1.109,-8.584 2.15,-12.523c0.64,-2.41 1.679,-4.81 2.946,-7.118c1.841,-3.353 4.154,-6.514 6.33,-9.229c3.026,-3.776 6.382,-7.483 10.078,-10.794c3.733,-3.343 7.809,-6.285 12.241,-8.492c3.12,-1.554 6.519,-2.799 9.995,-3.792c3.438,-0.982 6.949,-1.72 10.332,-2.279c8.151,-1.349 16.31,-2.068 24.468,-2.073c8.155,-0.004 16.308,0.703 24.448,2.213c3.494,0.647 6.93,1.502 10.325,2.493c5.066,1.478 10.042,3.258 14.995,5.104Z" style="fill:#007d7d;"/>
                </g>
                <path id="Ground" d="M229.277,145.539c-0.158,-1.965 -4.149,-6.448 -11.656,-8.726c-4.188,-1.271 -11.332,-0.429 -15.582,-0.141c-5.658,0.384 -11.364,-0.487 -17.021,-0.096c-7.269,0.502 -14.42,2.066 -21.692,2.53c-1.639,0.104 -3.071,-2.38 -4.324,-2.81c-2.588,-0.889 -11.516,-2.419 -14.235,-2.627c-4.492,-0.345 -7.378,2.599 -11.213,3.953c-3.207,1.133 -7.307,-0.002 -10.493,-0.501c-6.745,-1.057 -14.202,-3.119 -21.111,-3.174c-4.937,-0.039 -10.481,1.691 -14.915,3.467c-0.21,0.084 -7.324,2.583 -6.218,4.983c1.023,2.221 6.174,1.409 9.264,2.099c3.911,0.873 9.506,2.603 14.202,3.14c4.62,0.529 9.207,-0.512 13.971,0.082c3.823,0.477 7.185,2.823 10.753,3.975c2.897,0.935 4.256,1.113 7.308,0.923c5.518,-0.343 5.328,-1.327 11.145,-1.419c5.218,-0.083 10.425,1.554 15.66,1.119c4.399,-0.366 8.13,-2.994 12.488,-3.354c9.532,-0.787 19.194,1.477 28.756,1.195c7.153,-0.211 7.228,-1.195 14.202,-1.557c3.399,-0.176 10.868,-1.097 10.711,-3.061Z" style="fill:#007d7d;"/>
                <g id="Drawing">
                    <g id="Bike">
                        <path d="M166.973,88.223c-1.474,-0.529 -2.939,-1.089 -4.477,-1.344c-1.648,-0.294 -3.454,-0.432 -5.266,-0.448c-1.849,-0.016 -3.695,0.077 -5.383,0.277c-0.734,0.119 -1.427,-0.38 -1.546,-1.115c-0.119,-0.734 0.38,-1.427 1.115,-1.546c1.781,-0.368 3.74,-0.648 5.714,-0.79c2.006,-0.144 4.017,-0.126 5.864,0.063c0.658,0.071 1.306,0.188 1.95,0.336c2.234,0.514 4.389,1.446 6.663,1.752c0.785,0.121 1.423,0.696 1.623,1.465c0.201,0.768 -0.074,1.582 -0.7,2.071c-1.227,0.947 -2.456,1.891 -3.712,2.799c-1.876,1.356 -3.793,2.648 -5.699,3.96c-0.907,0.612 -1.794,1.256 -2.713,1.849c-0.658,0.423 -1.325,0.825 -2.024,1.173c-0.58,0.289 -1.179,0.529 -1.795,0.732c-0.818,0.269 -1.656,0.484 -2.473,0.753c-0.708,0.268 -1.502,-0.089 -1.771,-0.798c-0.269,-0.708 0.089,-1.502 0.797,-1.771c0.79,-0.34 1.603,-0.632 2.395,-0.97c0.463,-0.198 0.912,-0.418 1.342,-0.678c0.57,-0.345 1.106,-0.737 1.637,-1.141c0.854,-0.65 1.676,-1.343 2.518,-2.007l5.941,-4.622Z" style="fill:#007d7d;"/>
                        <path d="M174.694,113.8c0.322,-0.13 0.694,-0.14 1.041,0.004c0.7,0.29 1.033,1.094 0.743,1.794c-0.698,1.916 -1.917,1.833 -2.641,1.585c-0.453,-0.156 -0.951,-0.628 -1.348,-1.305c-0.489,-0.834 -0.842,-2.074 -0.897,-2.256c-0.663,-2.228 -1.018,-3.622 -1.283,-5.037c-0.262,-1.395 -0.425,-2.806 -0.719,-5.075c-0.179,-1.571 -0.412,-3.344 -0.592,-5.242c-0.237,-2.495 -0.431,-5.197 -0.584,-7.902c-0.273,-4.789 -0.379,-9.576 -0.35,-13.259c-0.024,-0.744 0.561,-1.367 1.305,-1.39c0.743,-0.024 1.366,0.561 1.389,1.305c0.224,3.091 0.679,6.951 1.134,10.94c0.278,2.445 0.581,4.93 0.821,7.311c0.29,2.87 0.485,5.585 0.689,7.864c0.146,2.198 0.227,3.564 0.384,4.922c0.154,1.338 0.374,2.665 0.829,4.792c0.013,0.065 0.025,0.509 0.079,0.949Zm0.151,0.703c0.079,0.194 0.186,0.29 0.334,0.184c0.137,-0.098 -0.128,-0.15 -0.334,-0.184Z" style="fill:#007d7d;"/>
                        <path d="M172.362,73.097c0.583,-0.461 1.432,-0.362 1.893,0.221c0.462,0.584 0.363,1.433 -0.221,1.894c-0.847,0.831 -1.102,1.256 -1.588,1.715c-0.345,0.326 -0.795,0.631 -1.53,1.076c-0.377,0.222 -0.783,0.333 -1.193,0.434c-0.479,0.117 -0.977,0.142 -1.474,0.182c-0.274,0.022 -0.549,0.024 -0.786,0.183c-0.281,0.169 -0.329,0.314 -0.426,0.449c-0.114,0.159 -0.236,0.321 -0.398,0.486c-0.236,0.238 -0.533,0.508 -1.008,0.781c-0.485,0.272 -0.886,0.464 -1.271,0.581c-0.394,0.12 -0.744,0.197 -1.123,0.26c-0.301,0.05 -0.627,0.07 -1.046,0.223l-2.687,1.155c-0.698,0.295 -1.504,-0.033 -1.799,-0.731c-0.295,-0.698 0.033,-1.505 0.732,-1.799l2.32,-1.66c0.857,-0.499 1.445,-0.616 2.082,-0.863c0.213,-0.083 0.418,-0.22 0.69,-0.423c0.309,-0.216 0.331,-0.406 0.439,-0.567c0.115,-0.17 0.249,-0.339 0.42,-0.515c0.235,-0.241 0.548,-0.5 1.028,-0.777c0.609,-0.334 1.234,-0.526 1.89,-0.567c0.412,-0.026 0.83,-0.011 1.248,0.01c0.289,0.014 0.578,0.121 0.854,0.015c0.514,-0.188 0.841,-0.305 1.098,-0.463c0.552,-0.34 0.883,-0.687 1.856,-1.3Z" style="fill:#007d7d;"/>
                        <path d="M171.344,90.194l-0.061,0.052c0.839,-0.382 1.757,-0.63 2.7,-0.792c1.305,-0.224 2.66,-0.273 3.9,-0.299c4.093,-0.086 8.194,0.736 11.658,2.565c3.613,1.907 6.529,4.915 8.101,9.133c0.606,1.625 0.969,3.135 1.214,4.653c0.343,2.129 0.438,4.274 0.658,6.811c0.162,1.893 0.325,3.985 0.299,6.038c-0.018,1.454 -0.135,2.888 -0.398,4.226c-0.506,2.573 -1.831,5.015 -3.618,7.18c-2.513,3.045 -5.947,5.531 -9.063,7.084c-5.532,2.715 -12.939,2.487 -19.277,-0.116c-6.452,-2.651 -11.731,-7.711 -12.972,-14.188c-0.408,-2.158 -0.698,-4.518 -0.8,-6.884c-0.103,-2.392 -0.018,-4.79 0.319,-6.995c0.688,-4.469 3.076,-8.434 6.338,-11.621c3.158,-3.084 7.113,-5.445 11.002,-6.847Zm1.025,2.52l-0.061,0.052c-3.485,1.357 -7.012,3.579 -9.799,6.439c-2.694,2.763 -4.689,6.135 -5.181,9.929c-0.263,2.002 -0.287,4.174 -0.15,6.337c0.139,2.189 0.451,4.369 0.869,6.36c1.092,5.262 5.6,9.163 10.879,11.273c5.297,2.118 11.452,2.452 16.05,0.175c2.257,-1.101 4.708,-2.765 6.733,-4.803c1.917,-1.93 3.476,-4.187 3.995,-6.652c0.238,-1.121 0.347,-2.326 0.383,-3.547c0.056,-1.93 -0.064,-3.9 -0.185,-5.682c-0.165,-2.447 -0.213,-4.513 -0.501,-6.57c-0.183,-1.309 -0.461,-2.615 -0.95,-4.023c-1.196,-3.443 -3.519,-5.914 -6.407,-7.527c-2.989,-1.67 -6.558,-2.452 -10.137,-2.466c-1.108,-0.005 -2.321,0.001 -3.491,0.171c-0.712,0.104 -1.409,0.263 -2.047,0.534Z" style="fill:#007d7d;"/>
                        <path d="M166.377,110.635c0.74,0.078 1.278,0.741 1.201,1.481c-0.078,0.74 -0.741,1.278 -1.481,1.201c-0.89,0.071 -1.754,0.207 -2.676,0.237c-0.628,0.021 -1.256,0.009 -1.877,-0.085c-0.488,-0.073 -0.966,-0.2 -1.425,-0.373c-1.14,-0.428 -2.163,-1.002 -3.096,-1.805c-0.651,-0.388 -0.865,-1.232 -0.477,-1.883c0.388,-0.651 1.232,-0.865 1.883,-0.477c0.873,0.334 1.762,0.354 2.681,0.459c0.309,0.035 0.618,0.062 0.927,0.113c0.319,0.052 0.634,0.121 0.948,0.197c1.168,0.283 2.272,0.624 3.392,0.935Z" style="fill:#007d7d;"/>
                        <path d="M163.775,130.938c-0.407,0.622 -1.243,0.798 -1.866,0.391c-0.622,-0.407 -0.798,-1.244 -0.391,-1.866c0.32,-0.794 0.594,-1.581 0.993,-2.367c0.273,-0.539 0.586,-1.056 0.967,-1.523c0.301,-0.369 0.644,-0.7 1.02,-0.985c0.933,-0.708 1.925,-1.234 3.084,-1.53c0.687,-0.321 1.504,-0.023 1.825,0.663c0.32,0.687 0.023,1.505 -0.664,1.826c-0.471,0.349 -0.773,0.806 -1.154,1.234c-0.381,0.43 -0.683,0.915 -1.056,1.36c-0.318,0.38 -0.679,0.717 -1.023,1.077c-0.579,0.607 -1.165,1.138 -1.735,1.72Z" style="fill:#007d7d;"/>
                        <path d="M176.075,123.749c-0.077,-0.74 0.462,-1.403 1.202,-1.48c0.74,-0.076 1.403,0.463 1.48,1.203l0.497,2.9c0.136,1.037 0.23,2.215 0.402,3.361c0.087,0.579 0.187,1.147 0.416,1.652c0.284,0.797 0.696,1.573 1.318,2.064c0.536,0.423 1.154,0.765 1.933,0.558c0.708,-0.272 1.503,0.082 1.775,0.789c0.272,0.708 -0.082,1.503 -0.79,1.775c-1.37,0.708 -2.709,0.636 -3.931,0.232c-1.701,-0.562 -3.062,-2.119 -3.954,-3.843c-0.359,-0.878 -0.586,-1.843 -0.635,-2.842c-0.06,-1.226 0.112,-2.475 0.147,-3.581l0.14,-2.788Z" style="fill:#007d7d;"/>
                        <path d="M119.198,111.598l4.134,-0.511l3.362,-0.821c0.941,-0.188 1.728,-0.264 2.531,-0.163c0.575,0.073 1.154,0.252 1.796,0.563c0.561,0.272 1.518,1.392 1.629,2.401c0.08,0.732 -0.165,1.411 -0.782,1.964c-0.46,0.412 -1.011,0.674 -1.605,0.848c-0.884,0.259 -1.915,0.226 -2.716,0.322l-7.966,0.991c-0.604,0.059 -1.844,0.048 -2.826,-0.151c-0.712,-0.145 -1.312,-0.416 -1.7,-0.712c-0.875,-0.669 -1.191,-1.468 -1.253,-2.265c-0.067,-0.853 0.291,-1.784 0.699,-2.522c0.511,-0.906 1.428,-2.04 2.055,-3.234c0.251,-0.478 0.492,-0.951 0.462,-1.432c-0.114,-1.965 -0.525,-3.905 -0.718,-5.862c-0.053,-0.539 -0.092,-1.08 -0.107,-1.622c-0.011,-0.452 -0.002,-0.904 0.029,-1.355c0.103,-1.541 0.431,-3.073 0.427,-4.618c-0,-0.841 -0.448,-1.643 -0.577,-2.469c-0.056,-0.356 -0.086,-0.712 -0.059,-1.073c0.092,-1.238 0.964,-2.509 2.417,-3.503c2.324,-1.588 6.055,-2.687 6.685,-2.924c0.689,-0.282 1.477,0.048 1.758,0.737c0.282,0.689 -0.049,1.476 -0.737,1.758c-0.436,0.193 -2.529,0.93 -4.415,1.975c-0.788,0.436 -1.536,0.931 -2.064,1.467c-0.213,0.217 -0.406,0.414 -0.412,0.65c-0.006,0.281 0.099,0.545 0.189,0.814c0.162,0.484 0.35,0.966 0.474,1.456c0.085,0.337 0.134,0.679 0.152,1.025c0.077,1.622 -0.178,3.247 -0.216,4.869c-0.008,0.341 -0.002,0.682 0.021,1.023c0.029,0.456 0.081,0.909 0.141,1.362c0.266,2.005 0.734,3.989 0.911,6.005c0.078,0.92 -0.118,1.868 -0.499,2.8c-0.309,0.759 -0.765,1.507 -1.22,2.207Zm10.07,1.985c0,0.001 0.001,0.002 0.001,0.003c0.036,0.077 0.154,0.076 0.196,0.099c-0.067,-0.037 -0.133,-0.071 -0.197,-0.102Z" style="fill:#007d7d;"/>
                        <path d="M118.873,88.391l0.196,-0.036c3.864,0.02 8.954,0.45 13.303,2.048c3.172,1.165 5.94,2.966 7.708,5.576c3.013,4.458 4.849,9.569 5.371,14.788c0.528,5.284 -0.306,10.676 -2.599,15.631c-0.658,1.417 -1.791,2.736 -3.134,3.901c-1.779,1.545 -3.928,2.824 -5.54,3.763c-1.581,0.916 -2.855,1.559 -4.189,2.025c-1.358,0.476 -2.778,0.771 -4.639,0.965c-3.765,0.378 -7.997,0.368 -11.867,-0.626c-2.741,-0.704 -5.303,-1.894 -7.431,-3.734c-5.378,-4.677 -7.8,-11.654 -7.565,-18.665c0.232,-6.878 2.999,-13.755 7.828,-18.364c2.067,-1.968 4.302,-3.951 6.821,-5.349c1.765,-0.98 3.664,-1.685 5.737,-1.923Zm0.147,2.711l0.195,-0.036c-1.698,0.239 -3.24,0.869 -4.67,1.712c-2.271,1.338 -4.254,3.221 -6.098,5.068c-4.14,4.137 -6.389,10.23 -6.47,16.263c-0.079,5.917 1.956,11.807 6.561,15.672c2.128,1.797 4.8,2.733 7.584,3.187c2.946,0.481 6.026,0.412 8.816,0.114c1.499,-0.155 2.645,-0.381 3.739,-0.76c1.121,-0.389 2.189,-0.933 3.521,-1.696c1.444,-0.823 3.375,-1.932 4.974,-3.291c0.918,-0.78 1.738,-1.629 2.196,-2.583c2.08,-4.309 2.865,-9.022 2.49,-13.66c-0.377,-4.669 -1.914,-9.266 -4.518,-13.304c-1.355,-2.106 -3.568,-3.523 -6.064,-4.511c-3.985,-1.575 -8.684,-2.066 -12.256,-2.175Z" style="fill:#007d7d;"/>
                        <path d="M179.684,97.322c-0.203,0.057 -0.391,0.13 -0.481,0.187c-0.572,0.476 -1.423,0.399 -1.899,-0.172c-0.477,-0.571 -0.4,-1.422 0.172,-1.899c0.536,-0.586 1.812,-1.204 2.908,-1.354c0.833,-0.115 1.536,0.226 2.119,0.663c0.312,0.242 0.502,0.627 0.685,1.034c0.218,0.487 0.25,1.113 0.285,1.448c0.057,0.876 -0.031,1.733 -0.269,2.557c-0.145,0.507 -0.351,0.998 -0.601,1.471c-0.416,0.79 -0.922,1.534 -1.455,2.259c-0.488,0.664 -1.001,1.271 -1.422,1.928c-0.321,0.687 -1.138,0.985 -1.825,0.664c-0.687,-0.32 -0.985,-1.138 -0.665,-1.825c0.503,-1.512 1.243,-3.045 1.806,-4.615c0.121,-0.339 0.229,-0.678 0.333,-1.018c0.133,-0.435 0.282,-0.864 0.309,-1.328Zm0.084,-0.276c0.028,-0.081 0.037,-0.148 -0.031,-0.139c-0.082,0.012 -0.044,0.069 0.031,0.139Zm0.244,0.206c0.017,0.016 0.032,0.031 0.043,0.044c0.084,0.103 0.335,0.265 0.376,0.127c0.055,-0.18 -0.155,-0.208 -0.419,-0.171Z" style="fill:#007d7d;"/>
                        <path d="M189.373,99.665c0.575,-0.473 1.425,-0.391 1.898,0.183c0.473,0.575 0.391,1.425 -0.184,1.898c-1.456,1.404 -2.642,3.006 -3.876,4.596c-0.854,1.102 -1.692,2.218 -2.614,3.264c-1.032,1.169 -2.172,2.231 -3.363,3.241c-0.98,0.772 -2.094,1.7 -3.338,2.167c-1.017,0.383 -2.079,0.575 -3.196,0.253c-0.744,-0.147 -1.229,-0.87 -1.082,-1.613c0.147,-0.744 0.87,-1.229 1.613,-1.082c0.5,0.055 0.919,-0.172 1.327,-0.405c0.868,-0.496 1.562,-1.341 2.206,-2.023c1.015,-1 1.896,-2.114 2.839,-3.18c0.986,-1.115 2.005,-2.2 3.052,-3.257c1.463,-1.479 3.005,-2.845 4.718,-4.042Z" style="fill:#007d7d;"/>
                        <path d="M101.155,108.829c0.14,0.055 0.275,0.133 0.396,0.237c0.872,0.668 1.362,1.534 1.676,2.473c0.386,1.154 0.393,2.466 0.432,3.684c0.01,0.307 -0.325,0.967 -0.02,0.939c0.052,-0.005 -0.001,-0.106 -0.023,-0.153c-0.023,-0.048 -0.075,-0.165 -0.075,-0.165c0,0 0.564,0.471 0.868,0.747c0.505,0.459 0.893,1 1.105,1.53c0.252,0.629 0.241,1.289 -0.013,1.982c-0.427,1.164 -1.304,1.559 -2.276,1.621c-1.071,0.068 -2.562,-0.839 -3.005,-1.2c-1.866,-1.581 -3.259,-3.087 -3.866,-4.919c-0.433,-1.305 -0.503,-2.781 -0.042,-4.556c0.25,-0.912 0.646,-1.896 1.133,-2.856c0.672,-1.321 1.481,-2.605 2.087,-3.617c0.64,-1.054 1.236,-2.136 1.886,-3.185c0.46,-0.741 0.938,-1.464 1.472,-2.151c0.426,-0.611 1.267,-0.761 1.877,-0.335c0.611,0.425 0.761,1.266 0.335,1.877c-0.305,0.49 -0.575,0.997 -0.838,1.51c-0.649,1.267 -1.206,2.58 -1.823,3.863c-0.375,0.768 -0.845,1.699 -1.286,2.674Zm-1.039,2.784c-0.028,0.11 -0.053,0.219 -0.075,0.326c-0.262,1.191 -0.118,2.102 0.31,2.913c0.01,0.019 0.02,0.038 0.03,0.056c0.052,-0.718 0.122,-1.466 0.036,-2.179c-0.047,-0.388 -0.118,-0.773 -0.301,-1.116Zm2.936,6.306c0.103,0.095 0.196,0.148 0.22,0.046c0.026,-0.109 -0.084,-0.094 -0.22,-0.046Zm-1.072,1.118c-0.036,0.237 -0.018,0.466 0.132,0.378c0.151,-0.089 0.049,-0.227 -0.132,-0.378Z" style="fill:#007d7d;"/>
                        <path d="M128.387,105.242c-0.381,0.639 -1.21,0.847 -1.848,0.466c-0.639,-0.382 -0.848,-1.21 -0.466,-1.849c1.171,-2.306 2.109,-4.745 2.853,-7.228c0.291,-0.969 0.543,-1.944 0.766,-2.923c0.148,-0.648 0.29,-1.295 0.409,-1.946c0.247,-1.354 0.419,-2.711 0.423,-4.094c0.003,-1.364 -0.085,-2.734 -0.392,-4.123c-0.22,-0.726 0.19,-1.493 0.916,-1.713c0.725,-0.22 1.492,0.191 1.712,0.916c0.901,2.354 1.334,4.742 1.347,7.144c0.009,1.618 -0.171,3.238 -0.55,4.819c-0.369,1.542 -0.931,3.044 -1.604,4.498c-0.984,2.126 -2.229,4.124 -3.566,6.033Z" style="fill:#007d7d;"/>
                        <path d="M181.326,116.831c-0.572,-0.475 -0.652,-1.326 -0.176,-1.898c0.475,-0.573 1.325,-0.652 1.898,-0.177c0.946,0.648 1.754,1.149 2.541,1.634c1.211,0.745 2.364,1.385 3.933,2.19c0.859,0.507 1.807,0.887 2.677,1.396c0.711,0.417 1.375,0.901 1.968,1.478c0.574,0.584 1.216,1.3 1.542,2.122c0.287,0.72 0.458,1.475 0.271,2.26c-0.154,0.625 -0.277,1.046 -0.453,1.401c-0.243,0.491 -0.521,0.841 -0.99,1.576c-0.346,0.674 -1.174,0.941 -1.849,0.596c-0.674,-0.346 -0.941,-1.175 -0.596,-1.849c0.229,-0.576 0.399,-0.911 0.528,-1.264c0.091,-0.247 0.099,-0.509 0.126,-0.953c0.004,-0.063 -0.078,-0.091 -0.102,-0.146c-0.057,-0.13 -0.179,-0.22 -0.275,-0.331c-0.205,-0.237 -0.464,-0.422 -0.689,-0.596c-0.206,-0.162 -0.431,-0.293 -0.653,-0.429c-0.516,-0.317 -1.071,-0.566 -1.614,-0.842c-0.653,-0.333 -1.292,-0.691 -1.903,-1.079c-1.272,-0.882 -2.278,-1.585 -3.231,-2.368c-0.956,-0.787 -1.85,-1.623 -2.953,-2.721Z" style="fill:#007d7d;"/>
                        <path d="M112.073,132.659c-0.235,0.706 -0.999,1.088 -1.705,0.853c-0.706,-0.236 -1.088,-1 -0.853,-1.706c0.273,-1.382 0.449,-2.905 0.872,-4.394c0.179,-0.626 0.411,-1.235 0.694,-1.811c0.202,-0.41 0.438,-0.799 0.701,-1.163c0.351,-0.485 0.725,-0.941 1.164,-1.333c1.037,-0.924 2.216,-1.648 3.719,-1.934c0.719,-0.24 1.497,0.149 1.737,0.869c0.24,0.719 -0.149,1.497 -0.868,1.737c-0.907,0.442 -1.452,1.171 -1.968,1.929c-0.252,0.372 -0.445,0.778 -0.661,1.183c-0.227,0.425 -0.444,0.862 -0.666,1.3c-0.771,1.518 -1.502,3.064 -2.166,4.47Z" style="fill:#007d7d;"/>
                        <path d="M135.254,129.813c0.207,0.241 0.332,0.553 0.332,0.895c0,0.758 -0.615,1.374 -1.373,1.374c-0.321,0.053 -0.981,-0.212 -1.576,-1.107c-0.452,-0.679 -1.177,-2.393 -1.922,-3.181c-0.269,-0.379 -0.63,-0.638 -0.989,-0.958c-0.484,-0.431 -0.988,-0.898 -1.475,-1.52c-0.531,-0.678 -1.06,-1.465 -1.5,-2.574c-0.377,-0.641 -0.164,-1.468 0.477,-1.846c0.641,-0.378 1.468,-0.164 1.846,0.477c0.68,0.837 1.376,1.272 1.978,1.692c0.613,0.429 1.18,0.75 1.669,1.137c0.459,0.364 0.84,0.789 1.183,1.27c0.299,0.508 0.624,1.174 0.828,1.913c0.249,0.898 0.382,1.836 0.527,2.356c0.006,0.022 -0.001,0.057 -0.005,0.072Zm-0.476,-0.357c-0.188,-0.1 -0.386,-0.121 -0.565,-0.121c0.201,-0 0.393,0.043 0.565,0.121Z" style="fill:#007d7d;"/>
                        <path d="M102.153,110.387c-0.74,0.07 -1.399,-0.474 -1.469,-1.215c-0.071,-0.74 0.473,-1.399 1.214,-1.469c0.727,-0.213 1.452,-0.453 2.204,-0.61c0.615,-0.128 1.215,-0.131 1.785,-0.127c0.437,0.035 0.887,0.124 1.321,0.283c0.388,0.141 0.759,0.338 1.108,0.533c0.266,0.149 0.478,0.341 0.706,0.435l1.634,0.589c0.758,-0 1.373,0.615 1.373,1.373c0,0.758 -0.615,1.373 -1.373,1.373c-0.378,0.076 -0.785,0.106 -1.225,0.138c-0.436,0.031 -0.861,-0.011 -1.284,-0.042c-0.368,-0.039 -0.763,-0.154 -1.194,-0.283c-0.316,-0.094 -0.647,-0.198 -0.973,-0.314c-0.211,-0.075 -0.407,-0.187 -0.616,-0.224c-0.44,-0.122 -0.915,-0.209 -1.423,-0.257c-0.608,-0.058 -1.195,-0.126 -1.788,-0.183Z" style="fill:#007d7d;"/>
                    </g>
                    <path id="Rider" d="M150.636,24.244c1.32,0.182 2.613,0.533 3.898,0.884c1.29,0.352 2.568,0.755 3.82,1.223c3.357,1.256 -1.525,4.271 -1.68,6.067c-0.093,1.074 1.324,2.225 0.653,3.343c-0.734,1.223 -1.151,0.754 -2.062,1.905c-1.679,2.121 -1.203,2.425 -3.113,4.302c-0.714,0.703 -1.622,-0.611 -2.281,0.18c-1.431,1.716 -1.45,4.322 -0.562,6.307c0.875,1.958 4.306,5.971 5.54,7.668c3.047,4.188 2.577,4.409 5.444,8.736c1.691,2.55 5.572,3.798 7.811,5.525c1.006,0.776 1.278,1.801 0.35,2.816c-2.144,2.346 -4.763,-0.338 -6.52,-1.529c-1.679,-1.138 -4.574,-2.871 -5.99,-4.581c-1.619,-1.954 -2.863,-4.2 -4.496,-6.142c-0.723,-0.86 -4.695,-4.992 -6.074,-2.08c-0.809,1.709 1.454,1.47 1.853,2.726c0.811,2.55 1.11,5.238 1.494,7.885c0.242,1.67 -0.087,2.315 -0.959,3.687c-0.607,0.955 -2.031,1.642 -1.961,2.772c0.093,1.498 4.442,6.132 5.308,7.047c0.443,0.469 1.188,0.71 1.422,1.31c0.365,0.935 0.179,1.999 0.26,2.999c0.365,4.533 0.696,4.545 -0.457,8.927c-0.481,1.826 -2.804,2.025 -3.38,3.788c-2.338,7.162 -2.172,7.178 -4.898,14.21c-0.365,0.941 -0.908,1.885 -0.886,2.894c0.009,0.448 0.579,0.712 0.969,0.931c1.012,0.569 3.184,0.899 3.939,2.061c0.452,0.695 0.015,2.5 -1.042,2.51c-2.085,0.019 -5.005,-0.805 -6.855,-1.215c-2.486,-0.552 -4.149,-0.614 -6.24,-2.139c-1.147,-0.835 0.999,-2.929 1.32,-3.185c0.333,-0.265 1.467,-0.255 1.644,-0.828c0.233,-0.754 -0.16,-1.63 0.129,-2.364c0.554,-1.404 1.689,-2.515 2.332,-3.88c2.336,-4.955 5.155,-10.812 3.809,-16.514c-0.625,-2.643 -4.019,-2.685 -5.857,-3.645c-1.866,-0.976 -1.174,-1.769 -3.082,-2.736c-1.907,-0.966 -2.614,-0.182 -4.487,-1.229c-0.674,-0.377 -1.106,-1.083 -1.718,-1.553c-2.271,-1.741 -5.779,-3.116 -6.247,-6.364c-0.288,-1.997 1.418,-5.165 1.815,-6.579c0.246,-0.875 0.434,-1.788 0.408,-2.696c-0.034,-1.146 -1.215,-2.222 -0.47,-3.385c1.338,-2.091 2.476,-2.58 3.168,-5.074c0.209,-0.754 -0.283,-1.641 0.055,-2.347c0.736,-1.534 1.948,-2.794 3.037,-4.1c2.88,-3.453 5.82,-6.858 8.863,-10.168c0.928,-1.01 2.176,-1.708 3.037,-2.775c1.429,-1.773 -1.359,-4.372 -2.26,-5.31c-0.339,-0.353 -1.099,-0.424 -1.152,-0.911c-0.133,-1.231 0.29,-2.474 0.659,-3.656c0.368,-1.182 0.84,-2.357 1.535,-3.382c0.508,-0.748 2.188,-1.224 2.963,-1.408c1.864,-0.444 5.238,-1.198 7.194,-0.928Z" style="fill:#007d7d;"/>
                </g>
            </g>
        </g>
    </g>
</svg>
