<?xml version="1.0" encoding="UTF-8" standalone="no"?>
<!DOCTYPE svg PUBLIC "-//W3C//DTD SVG 1.1//EN" "http://www.w3.org/Graphics/SVG/1.1/DTD/svg11.dtd">
<svg viewBox="0 0 160 160" version="1.1" xmlns="http://www.w3.org/2000/svg" xmlns:xlink="http://www.w3.org/1999/xlink" xml:space="preserve" xmlns:serif="http://www.serif.com/" style="fill-rule:evenodd;clip-rule:evenodd;stroke-linejoin:round;stroke-miterlimit:2;">
    <rect id="Icon--circle" serif:id="Icon, circle" x="0" y="-0" width="160" height="160" style="fill:none;"/>
    <clipPath id="_clip1">
        <rect id="Icon--circle1" serif:id="Icon, circle" x="0" y="-0" width="160" height="160"/>
    </clipPath>
    <g clip-path="url(#_clip1)">
        <rect x="-0" y="0" width="160" height="160" style="fill:#007d7d;"/>
        <path d="M91.166,10.272c-5.938,-1.123 -12.044,-1.223 -18.087,-1.241c-23.805,-0.071 -40.798,20.008 -53.966,37.19c-4.004,5.225 -8.86,14.458 -10.101,21.028c-2.693,14.264 -0.874,34.727 7.715,47.192c6.248,9.067 10.584,11.939 19.17,18.595c7.99,6.194 16.78,13.411 26.984,15.515c8.894,1.833 17.43,1.442 26.391,-0.084c4.333,-0.738 10.51,-2.581 14.482,-4.158c8.026,-3.188 13.807,-5.27 23.038,-10.683c4.918,-2.884 12.468,-10.754 14.826,-15.943c7.184,-15.808 9.442,-28.283 7.867,-45.471c-0.672,-7.324 -2.564,-19.812 -6.068,-26.497c-3.824,-7.297 -11.007,-11.987 -16.785,-17.398c-9.184,-8.599 -15.912,-15.607 -29.247,-17.214l-6.219,-0.831Z" style="fill:#fff;"/>
        <g id="Drawing">
            <g id="Bike">
                <path d="M99.015,87.723c-1.474,-0.529 -2.939,-1.089 -4.477,-1.344c-1.647,-0.294 -3.453,-0.432 -5.265,-0.448c-1.849,-0.016 -3.695,0.077 -5.383,0.277c-0.735,0.119 -1.428,-0.38 -1.547,-1.115c-0.119,-0.734 0.381,-1.427 1.115,-1.546c1.782,-0.368 3.741,-0.648 5.714,-0.79c2.006,-0.144 4.018,-0.126 5.865,0.063c0.657,0.071 1.306,0.188 1.949,0.336c2.235,0.514 4.389,1.446 6.664,1.752c0.784,0.121 1.422,0.696 1.623,1.465c0.201,0.768 -0.075,1.582 -0.7,2.071c-1.227,0.947 -2.457,1.891 -3.713,2.799c-1.875,1.356 -3.793,2.648 -5.699,3.96c-0.906,0.612 -1.793,1.256 -2.713,1.849c-0.657,0.423 -1.325,0.825 -2.024,1.173c-0.58,0.289 -1.179,0.529 -1.795,0.732c-0.818,0.269 -1.655,0.484 -2.472,0.753c-0.709,0.268 -1.502,-0.089 -1.771,-0.798c-0.269,-0.708 0.088,-1.502 0.797,-1.771c0.79,-0.34 1.603,-0.632 2.395,-0.97c0.463,-0.198 0.912,-0.418 1.342,-0.678c0.57,-0.345 1.106,-0.737 1.636,-1.141c0.854,-0.65 1.677,-1.343 2.519,-2.007l5.94,-4.622Z" style="fill:#007d7d;"/>
                <path d="M106.737,113.3c0.322,-0.13 0.694,-0.14 1.04,0.004c0.701,0.29 1.034,1.094 0.744,1.794c-0.698,1.916 -1.918,1.833 -2.642,1.585c-0.452,-0.156 -0.951,-0.628 -1.348,-1.305c-0.488,-0.834 -0.842,-2.074 -0.896,-2.256c-0.664,-2.228 -1.018,-3.622 -1.284,-5.037c-0.262,-1.395 -0.425,-2.806 -0.718,-5.075c-0.179,-1.571 -0.413,-3.344 -0.593,-5.242c-0.236,-2.495 -0.43,-5.197 -0.584,-7.902c-0.272,-4.789 -0.379,-9.576 -0.35,-13.259c-0.023,-0.744 0.562,-1.367 1.305,-1.39c0.744,-0.024 1.367,0.561 1.39,1.305c0.224,3.091 0.679,6.951 1.133,10.94c0.279,2.445 0.581,4.93 0.822,7.311c0.289,2.87 0.484,5.585 0.688,7.864c0.147,2.198 0.227,3.564 0.384,4.922c0.155,1.338 0.375,2.665 0.829,4.792c0.014,0.065 0.025,0.509 0.08,0.949Zm0.151,0.703c0.078,0.194 0.185,0.29 0.333,0.184c0.137,-0.098 -0.127,-0.15 -0.333,-0.184Z" style="fill:#007d7d;"/>
                <path d="M104.404,72.597c0.584,-0.461 1.432,-0.362 1.894,0.221c0.461,0.584 0.362,1.433 -0.221,1.894c-0.847,0.831 -1.102,1.256 -1.588,1.715c-0.346,0.326 -0.796,0.631 -1.53,1.076c-0.377,0.222 -0.783,0.333 -1.193,0.434c-0.479,0.117 -0.978,0.142 -1.475,0.182c-0.273,0.022 -0.548,0.024 -0.786,0.183c-0.281,0.169 -0.329,0.314 -0.426,0.449c-0.113,0.159 -0.235,0.321 -0.398,0.486c-0.235,0.238 -0.533,0.508 -1.007,0.781c-0.485,0.272 -0.887,0.464 -1.271,0.581c-0.394,0.12 -0.745,0.197 -1.123,0.26c-0.302,0.05 -0.628,0.07 -1.046,0.223l-2.687,1.155c-0.698,0.295 -1.505,-0.033 -1.799,-0.731c-0.295,-0.698 0.033,-1.505 0.731,-1.799l2.321,-1.66c0.856,-0.499 1.444,-0.616 2.081,-0.863c0.214,-0.083 0.418,-0.22 0.691,-0.423c0.309,-0.216 0.33,-0.406 0.439,-0.567c0.115,-0.17 0.248,-0.339 0.42,-0.515c0.235,-0.241 0.547,-0.5 1.027,-0.777c0.61,-0.334 1.234,-0.526 1.89,-0.567c0.412,-0.026 0.83,-0.011 1.249,0.01c0.289,0.014 0.578,0.121 0.853,0.015c0.515,-0.188 0.841,-0.305 1.099,-0.463c0.552,-0.34 0.882,-0.687 1.855,-1.3Z" style="fill:#007d7d;"/>
                <path d="M103.387,89.694l-0.061,0.052c0.838,-0.382 1.756,-0.63 2.7,-0.792c1.304,-0.224 2.66,-0.273 3.9,-0.299c4.093,-0.086 8.194,0.736 11.658,2.565c3.613,1.907 6.528,4.915 8.101,9.133c0.605,1.625 0.969,3.135 1.213,4.653c0.344,2.129 0.438,4.274 0.658,6.811c0.163,1.893 0.326,3.985 0.3,6.038c-0.019,1.454 -0.136,2.888 -0.398,4.226c-0.507,2.573 -1.832,5.015 -3.618,7.18c-2.514,3.045 -5.947,5.531 -9.063,7.084c-5.533,2.715 -12.94,2.487 -19.278,-0.116c-6.452,-2.651 -11.731,-7.711 -12.971,-14.188c-0.408,-2.158 -0.699,-4.518 -0.8,-6.884c-0.103,-2.392 -0.019,-4.79 0.318,-6.995c0.689,-4.469 3.076,-8.434 6.339,-11.621c3.157,-3.084 7.113,-5.445 11.002,-6.847Zm1.025,2.52l-0.061,0.052c-3.485,1.357 -7.012,3.579 -9.8,6.439c-2.693,2.763 -4.688,6.135 -5.181,9.929c-0.262,2.002 -0.287,4.174 -0.149,6.337c0.139,2.189 0.451,4.369 0.869,6.36c1.091,5.262 5.6,9.163 10.878,11.273c5.298,2.118 11.452,2.452 16.051,0.175c2.256,-1.101 4.707,-2.765 6.732,-4.803c1.918,-1.93 3.476,-4.187 3.996,-6.652c0.238,-1.121 0.347,-2.326 0.382,-3.547c0.057,-1.93 -0.064,-3.9 -0.185,-5.682c-0.164,-2.447 -0.212,-4.513 -0.5,-6.57c-0.183,-1.309 -0.462,-2.615 -0.951,-4.023c-1.195,-3.443 -3.519,-5.914 -6.406,-7.527c-2.989,-1.67 -6.559,-2.452 -10.137,-2.466c-1.108,-0.005 -2.321,0.001 -3.492,0.171c-0.712,0.104 -1.409,0.263 -2.046,0.534Z" style="fill:#007d7d;"/>
                <path d="M98.419,110.135c0.74,0.078 1.278,0.741 1.201,1.481c-0.077,0.74 -0.741,1.278 -1.481,1.201c-0.89,0.071 -1.754,0.207 -2.675,0.237c-0.628,0.021 -1.257,0.009 -1.878,-0.085c-0.488,-0.073 -0.965,-0.2 -1.424,-0.373c-1.141,-0.428 -2.163,-1.002 -3.096,-1.805c-0.651,-0.388 -0.865,-1.232 -0.477,-1.883c0.387,-0.651 1.231,-0.865 1.882,-0.477c0.873,0.334 1.763,0.354 2.681,0.459c0.31,0.035 0.619,0.062 0.928,0.113c0.318,0.052 0.633,0.121 0.948,0.197c1.167,0.283 2.271,0.624 3.391,0.935Z" style="fill:#007d7d;"/>
                <path d="M95.818,130.438c-0.407,0.622 -1.243,0.798 -1.866,0.391c-0.623,-0.407 -0.798,-1.244 -0.391,-1.866c0.319,-0.794 0.594,-1.581 0.992,-2.367c0.274,-0.539 0.587,-1.056 0.967,-1.523c0.301,-0.369 0.645,-0.7 1.021,-0.985c0.932,-0.708 1.925,-1.234 3.083,-1.53c0.687,-0.321 1.505,-0.023 1.826,0.663c0.32,0.687 0.023,1.505 -0.664,1.826c-0.472,0.349 -0.774,0.806 -1.154,1.234c-0.382,0.43 -0.683,0.915 -1.056,1.36c-0.319,0.38 -0.679,0.717 -1.023,1.077c-0.58,0.607 -1.165,1.138 -1.735,1.72Z" style="fill:#007d7d;"/>
                <path d="M108.117,123.249c-0.076,-0.74 0.463,-1.403 1.203,-1.48c0.74,-0.076 1.403,0.463 1.479,1.203l0.497,2.9c0.136,1.037 0.23,2.215 0.403,3.361c0.086,0.579 0.187,1.147 0.416,1.652c0.284,0.797 0.695,1.573 1.318,2.064c0.536,0.423 1.154,0.765 1.933,0.558c0.708,-0.272 1.503,0.082 1.775,0.789c0.271,0.708 -0.083,1.503 -0.79,1.775c-1.37,0.708 -2.709,0.636 -3.931,0.232c-1.701,-0.562 -3.062,-2.119 -3.954,-3.843c-0.359,-0.878 -0.586,-1.843 -0.635,-2.842c-0.061,-1.226 0.111,-2.475 0.146,-3.581l0.14,-2.788Z" style="fill:#007d7d;"/>
                <path d="M51.24,111.098l4.134,-0.511l3.362,-0.821c0.942,-0.188 1.729,-0.264 2.531,-0.163c0.575,0.073 1.155,0.252 1.797,0.563c0.56,0.272 1.517,1.392 1.628,2.401c0.081,0.732 -0.164,1.411 -0.782,1.964c-0.459,0.412 -1.01,0.674 -1.604,0.848c-0.884,0.259 -1.916,0.226 -2.717,0.322l-7.966,0.991c-0.603,0.059 -1.843,0.048 -2.825,-0.151c-0.713,-0.145 -1.312,-0.416 -1.7,-0.712c-0.876,-0.669 -1.191,-1.468 -1.254,-2.265c-0.067,-0.853 0.292,-1.784 0.699,-2.522c0.511,-0.906 1.428,-2.04 2.056,-3.234c0.25,-0.478 0.491,-0.951 0.461,-1.432c-0.114,-1.965 -0.524,-3.905 -0.717,-5.862c-0.054,-0.539 -0.093,-1.08 -0.108,-1.622c-0.011,-0.452 -0.001,-0.904 0.029,-1.355c0.103,-1.541 0.432,-3.073 0.428,-4.618c-0.001,-0.841 -0.448,-1.643 -0.577,-2.469c-0.056,-0.356 -0.086,-0.712 -0.059,-1.073c0.092,-1.238 0.964,-2.509 2.417,-3.503c2.323,-1.588 6.054,-2.687 6.685,-2.924c0.688,-0.282 1.476,0.048 1.758,0.737c0.281,0.689 -0.049,1.476 -0.738,1.758c-0.436,0.193 -2.528,0.93 -4.415,1.975c-0.788,0.436 -1.535,0.931 -2.063,1.467c-0.213,0.217 -0.406,0.414 -0.412,0.65c-0.007,0.281 0.099,0.545 0.189,0.814c0.162,0.484 0.349,0.966 0.473,1.456c0.086,0.337 0.135,0.679 0.152,1.025c0.078,1.622 -0.177,3.247 -0.216,4.869c-0.008,0.341 -0.001,0.682 0.021,1.023c0.03,0.456 0.082,0.909 0.142,1.362c0.265,2.005 0.733,3.989 0.911,6.005c0.078,0.92 -0.119,1.868 -0.499,2.8c-0.31,0.759 -0.765,1.507 -1.221,2.207Zm10.071,1.985c0,0.001 0,0.002 0.001,0.003c0.035,0.077 0.154,0.076 0.196,0.099c-0.067,-0.037 -0.133,-0.071 -0.197,-0.102Z" style="fill:#007d7d;"/>
                <path d="M50.916,87.891l0.195,-0.036c3.865,0.02 8.954,0.45 13.304,2.048c3.172,1.165 5.94,2.966 7.708,5.576c3.013,4.458 4.848,9.569 5.37,14.788c0.528,5.284 -0.306,10.676 -2.598,15.631c-0.658,1.417 -1.792,2.736 -3.134,3.901c-1.779,1.545 -3.928,2.824 -5.541,3.763c-1.58,0.916 -2.855,1.559 -4.188,2.025c-1.358,0.476 -2.778,0.771 -4.639,0.965c-3.766,0.378 -7.998,0.368 -11.867,-0.626c-2.741,-0.704 -5.303,-1.894 -7.432,-3.734c-5.377,-4.677 -7.8,-11.654 -7.564,-18.665c0.231,-6.878 2.999,-13.755 7.827,-18.364c2.067,-1.968 4.302,-3.951 6.822,-5.349c1.765,-0.98 3.664,-1.685 5.737,-1.923Zm0.146,2.711l0.196,-0.036c-1.699,0.239 -3.24,0.869 -4.67,1.712c-2.271,1.338 -4.254,3.221 -6.099,5.068c-4.139,4.137 -6.389,10.23 -6.469,16.263c-0.08,5.917 1.955,11.807 6.561,15.672c2.127,1.797 4.799,2.733 7.584,3.187c2.946,0.481 6.026,0.412 8.816,0.114c1.499,-0.155 2.644,-0.381 3.739,-0.76c1.121,-0.389 2.189,-0.933 3.521,-1.696c1.443,-0.823 3.374,-1.932 4.974,-3.291c0.918,-0.78 1.738,-1.629 2.196,-2.583c2.079,-4.309 2.865,-9.022 2.49,-13.66c-0.378,-4.669 -1.914,-9.266 -4.518,-13.304c-1.355,-2.106 -3.568,-3.523 -6.065,-4.511c-3.984,-1.575 -8.684,-2.066 -12.256,-2.175Z" style="fill:#007d7d;"/>
                <path d="M111.727,96.822c-0.203,0.057 -0.392,0.13 -0.482,0.187c-0.571,0.476 -1.422,0.399 -1.899,-0.172c-0.476,-0.571 -0.399,-1.422 0.172,-1.899c0.536,-0.586 1.813,-1.204 2.909,-1.354c0.832,-0.115 1.535,0.226 2.118,0.663c0.313,0.242 0.502,0.627 0.685,1.034c0.219,0.487 0.25,1.113 0.286,1.448c0.057,0.876 -0.032,1.733 -0.269,2.557c-0.146,0.507 -0.352,0.998 -0.601,1.471c-0.417,0.79 -0.922,1.534 -1.455,2.259c-0.488,0.664 -1.001,1.271 -1.423,1.928c-0.32,0.687 -1.138,0.985 -1.825,0.664c-0.687,-0.32 -0.985,-1.138 -0.664,-1.825c0.503,-1.512 1.243,-3.045 1.805,-4.615c0.122,-0.339 0.229,-0.678 0.333,-1.018c0.133,-0.435 0.283,-0.864 0.31,-1.328Zm0.084,-0.276c0.027,-0.081 0.036,-0.148 -0.031,-0.139c-0.083,0.012 -0.045,0.069 0.031,0.139Zm0.243,0.206c0.017,0.016 0.032,0.031 0.043,0.044c0.084,0.103 0.335,0.265 0.377,0.127c0.055,-0.18 -0.155,-0.208 -0.42,-0.171Z" style="fill:#007d7d;"/>
                <path d="M121.416,99.165c0.574,-0.473 1.425,-0.391 1.898,0.183c0.473,0.575 0.39,1.425 -0.184,1.898c-1.456,1.404 -2.642,3.006 -3.876,4.596c-0.855,1.102 -1.692,2.218 -2.615,3.264c-1.031,1.169 -2.172,2.231 -3.363,3.241c-0.98,0.772 -2.093,1.7 -3.337,2.167c-1.017,0.383 -2.079,0.575 -3.197,0.253c-0.743,-0.147 -1.228,-0.87 -1.081,-1.613c0.146,-0.744 0.869,-1.229 1.613,-1.082c0.5,0.055 0.918,-0.172 1.326,-0.405c0.868,-0.496 1.562,-1.341 2.206,-2.023c1.016,-1 1.896,-2.114 2.839,-3.18c0.987,-1.115 2.005,-2.2 3.052,-3.257c1.464,-1.479 3.005,-2.845 4.719,-4.042Z" style="fill:#007d7d;"/>
                <path d="M33.197,108.329c0.141,0.055 0.275,0.133 0.397,0.237c0.872,0.668 1.362,1.534 1.676,2.473c0.385,1.154 0.393,2.466 0.432,3.684c0.01,0.307 -0.325,0.967 -0.02,0.939c0.052,-0.005 -0.001,-0.106 -0.024,-0.153c-0.023,-0.048 -0.074,-0.165 -0.074,-0.165c-0,0 0.564,0.471 0.868,0.747c0.505,0.459 0.892,1 1.105,1.53c0.251,0.629 0.241,1.289 -0.014,1.982c-0.427,1.164 -1.303,1.559 -2.276,1.621c-1.07,0.068 -2.561,-0.839 -3.005,-1.2c-1.866,-1.581 -3.258,-3.087 -3.865,-4.919c-0.433,-1.305 -0.503,-2.781 -0.043,-4.556c0.25,-0.912 0.646,-1.896 1.134,-2.856c0.671,-1.321 1.481,-2.605 2.087,-3.617c0.64,-1.054 1.235,-2.136 1.886,-3.185c0.459,-0.741 0.937,-1.464 1.472,-2.151c0.425,-0.611 1.266,-0.761 1.877,-0.335c0.61,0.425 0.76,1.266 0.335,1.877c-0.305,0.49 -0.576,0.997 -0.838,1.51c-0.649,1.267 -1.206,2.58 -1.824,3.863c-0.375,0.768 -0.845,1.699 -1.286,2.674Zm-1.039,2.784c-0.027,0.11 -0.052,0.219 -0.074,0.326c-0.262,1.191 -0.118,2.102 0.309,2.913c0.01,0.019 0.02,0.038 0.03,0.056c0.053,-0.718 0.122,-1.466 0.036,-2.179c-0.046,-0.388 -0.117,-0.773 -0.301,-1.116Zm2.937,6.306c0.102,0.095 0.196,0.148 0.22,0.046c0.025,-0.109 -0.085,-0.094 -0.22,-0.046Zm-1.072,1.118c-0.036,0.237 -0.018,0.466 0.132,0.378c0.15,-0.089 0.049,-0.227 -0.132,-0.378Z" style="fill:#007d7d;"/>
                <path d="M60.43,104.742c-0.382,0.639 -1.21,0.847 -1.849,0.466c-0.639,-0.382 -0.847,-1.21 -0.466,-1.849c1.171,-2.306 2.109,-4.745 2.854,-7.228c0.29,-0.969 0.542,-1.944 0.765,-2.923c0.148,-0.648 0.291,-1.295 0.41,-1.946c0.246,-1.354 0.419,-2.711 0.422,-4.094c0.004,-1.364 -0.084,-2.734 -0.392,-4.123c-0.22,-0.726 0.191,-1.493 0.916,-1.713c0.726,-0.22 1.493,0.191 1.713,0.916c0.901,2.354 1.334,4.742 1.347,7.144c0.009,1.618 -0.171,3.238 -0.55,4.819c-0.369,1.542 -0.931,3.044 -1.604,4.498c-0.985,2.126 -2.229,4.124 -3.566,6.033Z" style="fill:#007d7d;"/>
                <path d="M113.369,116.331c-0.573,-0.475 -0.652,-1.326 -0.177,-1.898c0.475,-0.573 1.326,-0.652 1.898,-0.177c0.946,0.648 1.755,1.149 2.542,1.634c1.211,0.745 2.364,1.385 3.933,2.19c0.858,0.507 1.807,0.887 2.677,1.396c0.711,0.417 1.374,0.901 1.967,1.478c0.574,0.584 1.216,1.3 1.543,2.122c0.286,0.72 0.458,1.475 0.27,2.26c-0.153,0.625 -0.277,1.046 -0.452,1.401c-0.244,0.491 -0.521,0.841 -0.991,1.576c-0.345,0.674 -1.174,0.941 -1.848,0.596c-0.675,-0.346 -0.942,-1.175 -0.596,-1.849c0.229,-0.576 0.399,-0.911 0.528,-1.264c0.09,-0.247 0.098,-0.509 0.126,-0.953c0.004,-0.063 -0.078,-0.091 -0.102,-0.146c-0.057,-0.13 -0.18,-0.22 -0.275,-0.331c-0.205,-0.237 -0.464,-0.422 -0.689,-0.596c-0.206,-0.162 -0.431,-0.293 -0.653,-0.429c-0.516,-0.317 -1.071,-0.566 -1.614,-0.842c-0.654,-0.333 -1.292,-0.691 -1.903,-1.079c-1.272,-0.882 -2.279,-1.585 -3.231,-2.368c-0.957,-0.787 -1.851,-1.623 -2.953,-2.721Z" style="fill:#007d7d;"/>
                <path d="M44.116,132.159c-0.235,0.706 -0.999,1.088 -1.705,0.853c-0.706,-0.236 -1.088,-1 -0.853,-1.706c0.273,-1.382 0.448,-2.905 0.872,-4.394c0.178,-0.626 0.411,-1.235 0.694,-1.811c0.201,-0.41 0.437,-0.799 0.7,-1.163c0.351,-0.485 0.725,-0.941 1.165,-1.333c1.037,-0.924 2.216,-1.648 3.718,-1.934c0.72,-0.24 1.498,0.149 1.738,0.869c0.239,0.719 -0.15,1.497 -0.869,1.737c-0.906,0.442 -1.451,1.171 -1.967,1.929c-0.253,0.372 -0.445,0.778 -0.661,1.183c-0.227,0.425 -0.444,0.862 -0.667,1.3c-0.77,1.518 -1.501,3.064 -2.165,4.47Z" style="fill:#007d7d;"/>
                <path d="M67.297,129.313c0.207,0.241 0.332,0.553 0.332,0.895c0,0.758 -0.615,1.374 -1.373,1.374c-0.322,0.053 -0.982,-0.212 -1.577,-1.107c-0.451,-0.679 -1.177,-2.393 -1.921,-3.181c-0.269,-0.379 -0.63,-0.638 -0.99,-0.958c-0.484,-0.431 -0.987,-0.898 -1.474,-1.52c-0.532,-0.678 -1.06,-1.465 -1.5,-2.574c-0.378,-0.641 -0.164,-1.468 0.477,-1.846c0.641,-0.378 1.468,-0.164 1.846,0.477c0.68,0.837 1.376,1.272 1.978,1.692c0.613,0.429 1.179,0.75 1.668,1.137c0.459,0.364 0.841,0.789 1.184,1.27c0.298,0.508 0.623,1.174 0.828,1.913c0.249,0.898 0.381,1.836 0.527,2.356c0.006,0.022 -0.001,0.057 -0.005,0.072Zm-0.476,-0.357c-0.189,-0.1 -0.386,-0.121 -0.565,-0.121c0.201,-0 0.392,0.043 0.565,0.121Z" style="fill:#007d7d;"/>
                <path d="M34.196,109.887c-0.741,0.07 -1.399,-0.474 -1.47,-1.215c-0.07,-0.74 0.474,-1.399 1.214,-1.469c0.728,-0.213 1.452,-0.453 2.204,-0.61c0.616,-0.128 1.216,-0.131 1.786,-0.127c0.436,0.035 0.886,0.124 1.321,0.283c0.388,0.141 0.758,0.338 1.107,0.533c0.266,0.149 0.478,0.341 0.707,0.435l1.634,0.589c0.758,-0 1.373,0.615 1.373,1.373c-0,0.758 -0.615,1.373 -1.373,1.373c-0.379,0.076 -0.786,0.106 -1.226,0.138c-0.435,0.031 -0.86,-0.011 -1.283,-0.042c-0.368,-0.039 -0.763,-0.154 -1.194,-0.283c-0.316,-0.094 -0.647,-0.198 -0.974,-0.314c-0.211,-0.075 -0.407,-0.187 -0.615,-0.224c-0.44,-0.122 -0.916,-0.209 -1.423,-0.257c-0.608,-0.058 -1.195,-0.126 -1.788,-0.183Z" style="fill:#007d7d;"/>
            </g>
            <path id="Rider" d="M82.679,23.744c1.32,0.182 2.612,0.533 3.898,0.884c1.289,0.352 2.567,0.755 3.819,1.223c3.358,1.256 -1.524,4.271 -1.68,6.067c-0.093,1.074 1.325,2.225 0.654,3.343c-0.734,1.223 -1.152,0.754 -2.062,1.905c-1.68,2.121 -1.204,2.425 -3.113,4.302c-0.715,0.703 -1.622,-0.611 -2.282,0.18c-1.43,1.716 -1.45,4.322 -0.562,6.307c0.876,1.958 4.306,5.971 5.541,7.668c3.047,4.188 2.576,4.409 5.444,8.736c1.69,2.55 5.571,3.798 7.811,5.525c1.006,0.776 1.277,1.801 0.349,2.816c-2.143,2.346 -4.763,-0.338 -6.52,-1.529c-1.679,-1.138 -4.573,-2.871 -5.989,-4.581c-1.619,-1.954 -2.863,-4.2 -4.496,-6.142c-0.723,-0.86 -4.695,-4.992 -6.074,-2.08c-0.809,1.709 1.453,1.47 1.853,2.726c0.81,2.55 1.11,5.238 1.494,7.885c0.242,1.67 -0.087,2.315 -0.959,3.687c-0.608,0.955 -2.031,1.642 -1.961,2.772c0.092,1.498 4.442,6.132 5.308,7.047c0.442,0.469 1.187,0.71 1.422,1.31c0.365,0.935 0.179,1.999 0.259,2.999c0.366,4.533 0.697,4.545 -0.457,8.927c-0.481,1.826 -2.804,2.025 -3.379,3.788c-2.339,7.162 -2.172,7.178 -4.898,14.21c-0.365,0.941 -0.909,1.885 -0.887,2.894c0.01,0.448 0.579,0.712 0.97,0.931c1.012,0.569 3.184,0.899 3.938,2.061c0.452,0.695 0.015,2.5 -1.042,2.51c-2.084,0.019 -5.004,-0.805 -6.854,-1.215c-2.487,-0.552 -4.149,-0.614 -6.241,-2.139c-1.146,-0.835 0.999,-2.929 1.321,-3.185c0.332,-0.265 1.467,-0.255 1.644,-0.828c0.233,-0.754 -0.161,-1.63 0.129,-2.364c0.553,-1.404 1.688,-2.515 2.332,-3.88c2.336,-4.955 5.155,-10.812 3.808,-16.514c-0.624,-2.643 -4.019,-2.685 -5.856,-3.645c-1.866,-0.976 -1.175,-1.769 -3.083,-2.736c-1.906,-0.966 -2.614,-0.182 -4.486,-1.229c-0.674,-0.377 -1.106,-1.083 -1.719,-1.553c-2.27,-1.741 -5.778,-3.116 -6.246,-6.364c-0.288,-1.997 1.417,-5.165 1.815,-6.579c0.246,-0.875 0.434,-1.788 0.407,-2.696c-0.033,-1.146 -1.214,-2.222 -0.469,-3.385c1.338,-2.091 2.476,-2.58 3.168,-5.074c0.209,-0.754 -0.283,-1.641 0.055,-2.347c0.736,-1.534 1.948,-2.794 3.037,-4.1c2.88,-3.453 5.82,-6.858 8.863,-10.168c0.928,-1.01 2.176,-1.708 3.037,-2.775c1.429,-1.773 -1.359,-4.372 -2.26,-5.31c-0.34,-0.353 -1.1,-0.424 -1.152,-0.911c-0.133,-1.231 0.29,-2.474 0.658,-3.656c0.369,-1.182 0.841,-2.357 1.536,-3.382c0.508,-0.748 2.188,-1.224 2.963,-1.408c1.864,-0.444 5.238,-1.198 7.194,-0.928Z" style="fill:#007d7d;"/>
        </g>
    </g>
</svg>
