<?xml version="1.0" encoding="UTF-8"?>
<svg width="1080" height="1080" clip-rule="evenodd" fill-rule="evenodd" stroke-linejoin="round" stroke-miterlimit="2" version="1.1" viewBox="0 0 1080 1080" xml:space="preserve" xmlns="http://www.w3.org/2000/svg">
  <rect width="1080" height="1080" fill="#0d1a16" stroke-width=".70711"/>
  <g transform="translate(-924)">
    <path d="m1848 540v512h-768v-512c0-282.77 171.92-512 384-512s384 229.23 384 512z" fill="#fff"/>
    <clipPath id="a">
      <path d="m1848 540v512h-768v-512c0-282.77 171.92-512 384-512s384 229.23 384 512z"/>
    </clipPath>
    <g clip-path="url(#a)">
      <circle cx="1464" cy="352" r="580" fill="#e7ffff"/>
      <path d="m1464-234c323.42 0 586 262.58 586 586s-262.58 586-586 586-586-262.58-586-586 262.58-586 586-586zm0 6c-320.11 0-580 259.89-580 580s259.89 580 580 580 580-259.89 580-580-259.89-580-580-580z" fill="#0d1a16"/>
      <path d="m1464-228c320.11 0 580 259.89 580 580s-259.89 580-580 580-580-259.89-580-580 259.89-580 580-580zm0 290c160.06 0 290 129.94 290 290s-129.94 290-290 290-290-129.94-290-290 129.94-290 290-290z" fill="#95b1ae"/>
      <path d="m1464-234c323.42 0 586 262.58 586 586s-262.58 586-586 586-586-262.58-586-586 262.58-586 586-586zm0 6c-320.11 0-580 259.89-580 580s259.89 580 580 580 580-259.89 580-580-259.89-580-580-580zm0 290c160.06 0 290 129.94 290 290s-129.94 290-290 290-290-129.94-290-290 129.94-290 290-290zm0 6c-156.74 0-284 127.26-284 284s127.26 284 284 284 284-127.26 284-284-127.26-284-284-284z" fill="#0d1a16"/>
      <path d="m2039 276.3c-37.991-288.57-283.98-504.3-575.04-504.3-320.11 0-580 259.89-580 580s259.89 580 580 580c243.83 0 461.63-152.5 545.02-381.63l-545.02-198.37z" fill="#ff758f"/>
      <path d="m2039.4 279.27-562.88 74.105 533.5 194.18c1.557 0.566 2.359 2.288 1.793 3.845-83.827 230.31-302.75 383.6-547.84 383.6-321.77 0-583-261.23-583-583s261.23-583 583-583c292.57 0 539.82 216.84 578.01 506.9 0.217 1.643-0.94 3.15-2.582 3.366zm-3.766-5.556c-39.087-285.59-283.11-498.71-571.66-498.71-318.46 0-577 258.54-577 577s258.54 577 577 577c241.57 0 457.45-150.46 541.17-376.84l-542.2-197.34c-1.299-0.473-2.107-1.772-1.956-3.146 0.15-1.374 1.22-2.467 2.59-2.647z" fill="#0d1a16"/>
      <path d="m2039 276.3c-37.991-288.57-283.98-504.3-575.04-504.3-320.11 0-580 259.89-580 580s259.89 580 580 580c243.83 0 461.63-152.5 545.02-381.63l-327.01-119.02c-33.358 91.65-120.48 152.65-218.01 152.65-128.04 0-232-103.96-232-232s103.96-232 232-232c116.42 0 214.82 86.289 230.02 201.72z" fill="#8c4151"/>
      <path d="m2039.4 279.27-345.02 45.423c-1.643 0.217-3.15-0.94-3.366-2.582-15-113.94-112.12-199.11-227.04-199.11-126.39 0-229 102.61-229 229s102.61 229 229 229c96.271 0 182.26-60.212 215.19-150.68 0.566-1.557 2.288-2.36 3.845-1.793l327.01 119.02c1.557 0.566 2.359 2.288 1.793 3.845-83.827 230.31-302.75 383.6-547.84 383.6-321.77 0-583-261.23-583-583s261.23-583 583-583c292.57 0 539.82 216.84 578.01 506.9 0.217 1.643-0.94 3.15-2.582 3.366zm-3.766-5.556c-39.087-285.59-283.11-498.71-571.66-498.71-318.46 0-577 258.54-577 577s258.54 577 577 577c241.57 0 457.45-150.46 541.17-376.84-30.118-10.962-291.4-106.06-321.38-116.98-34.535 91.269-121.99 151.81-219.78 151.81-129.7 0-235-105.3-235-235s105.3-235 235-235c116.93 0 215.9 85.927 232.58 201.35z" fill="#0d1a16"/>
      <path d="m2009 153.63c-83.395-229.13-301.19-381.63-545.02-381.63-320.11 0-580 259.89-580 580s259.89 580 580 580c243.83 0 461.63-152.5 545.02-381.63l-545.02-198.37z" fill="#f2d479"/>
      <path d="m2010 156.45-537.28 195.55 537.28 195.55c1.557 0.566 2.359 2.288 1.793 3.845-83.827 230.31-302.75 383.6-547.84 383.6-321.77 0-583-261.23-583-583s261.23-583 583-583c245.09 0 464.01 153.29 547.84 383.6 0.566 1.557-0.236 3.279-1.793 3.845zm-4.879-4.609c-83.718-226.37-299.6-376.84-541.17-376.84-318.46 0-577 258.54-577 577s258.54 577 577 577c241.57 0 457.45-150.46 541.17-376.84l-542.2-197.34c-1.185-0.431-1.974-1.558-1.974-2.819s0.789-2.388 1.974-2.819z" fill="#0d1a16"/>
      <path d="m2009 153.63c-83.395-229.13-301.19-381.63-545.02-381.63-320.11 0-580 259.89-580 580s259.89 580 580 580c243.83 0 461.63-152.5 545.02-381.63l-354.26-128.94c-29.189 80.194-105.42 133.57-190.76 133.57-112.04 0-203-90.961-203-203s90.961-203 203-203c85.341 0 161.57 53.376 190.76 133.57z" fill="#736439"/>
      <path d="m2010 156.45-354.26 128.94c-1.557 0.567-3.279-0.236-3.845-1.793-28.757-79.009-103.86-131.6-187.94-131.6-110.38 0-200 89.617-200 200s89.617 200 200 200c84.08 0 159.18-52.587 187.94-131.6 0.566-1.557 2.288-2.36 3.845-1.793l354.26 128.94c1.557 0.566 2.359 2.288 1.793 3.845-83.827 230.31-302.75 383.6-547.84 383.6-321.77 0-583-261.23-583-583s261.23-583 583-583c245.09 0 464.01 153.29 547.84 383.6 0.566 1.557-0.236 3.279-1.793 3.845zm-4.879-4.609c-83.718-226.37-299.6-376.84-541.17-376.84-318.46 0-577 258.54-577 577s258.54 577 577 577c241.57 0 457.45-150.46 541.17-376.84l-348.64-126.89c-30.363 79.813-106.93 132.73-192.53 132.73-113.69 0-206-92.306-206-206s92.306-206 206-206c85.601 0 162.17 52.919 192.53 132.73z" fill="#0d1a16"/>
      <path d="m1953.2 40.366c-106.49-167.16-290.97-268.37-489.17-268.37-320.11 0-580 259.89-580 580s259.89 580 580 580c243.83 0 461.63-152.5 545.02-381.63l-545.02-198.37z" fill="#b9fc7e"/>
      <path d="m1954.8 42.896-484.04 308.37 539.3 196.29c1.557 0.566 2.359 2.288 1.793 3.845-83.827 230.31-302.75 383.6-547.84 383.6-321.77 0-583-261.23-583-583s261.23-583 583-583c199.22 0 384.65 101.73 491.7 269.75 0.89 1.398 0.479 3.252-0.918 4.142zm-5.761-3.444c-106.18-164.79-288.84-264.45-485.02-264.45-318.46 0-577 258.54-577 577s258.54 577 577 577c241.57 0 457.45-150.46 541.17-376.84l-542.2-197.34c-1.073-0.391-1.832-1.357-1.956-2.492-0.125-1.136 0.407-2.243 1.37-2.857z" fill="#0d1a16"/>
      <path d="m1953.2 40.366c-106.49-167.16-290.97-268.37-489.17-268.37-320.11 0-580 259.89-580 580s259.89 580 580 580c243.83 0 461.63-152.5 545.02-381.63l-327.01-119.02c-33.358 91.65-120.48 152.65-218.01 152.65-128.04 0-232-103.96-232-232s103.96-232 232-232c79.279 0 153.07 40.483 195.67 107.35z" fill="#5c7d3e"/>
      <path d="m1954.8 42.896-293.5 186.98c-1.398 0.89-3.252 0.479-4.142-0.919-42.046-65.999-114.88-105.96-193.14-105.96-126.39 0-229 102.61-229 229s102.61 229 229 229c96.271 0 182.26-60.212 215.19-150.68 0.566-1.557 2.288-2.36 3.845-1.793l327.01 119.02c1.557 0.566 2.359 2.288 1.793 3.845-83.827 230.31-302.75 383.6-547.84 383.6-321.77 0-583-261.23-583-583s261.23-583 583-583c199.22 0 384.65 101.73 491.7 269.75 0.89 1.398 0.479 3.252-0.918 4.142zm-5.761-3.444c-106.18-164.79-288.84-264.45-485.02-264.45-318.46 0-577 258.54-577 577s258.54 577 577 577c241.57 0 457.45-150.46 541.17-376.84-30.118-10.962-291.4-106.06-321.38-116.98-34.535 91.269-121.99 151.81-219.78 151.81-129.7 0-235-105.3-235-235s105.3-235 235-235c79.304 0 153.18 39.991 196.57 106.22z" fill="#0d1a16"/>
      <path d="m1874.1-58.122c-108.77-108.77-256.3-169.88-410.12-169.88-320.11 0-580 259.89-580 580s259.89 580 580 580c243.83 0 461.63-152.5 545.02-381.63l-545.02-198.37z" fill="#7ee6cc"/>
      <path d="m1876.2-56.001-406.79 406.79 540.6 196.76c1.557 0.566 2.359 2.288 1.793 3.845-83.827 230.31-302.75 383.6-547.84 383.6-321.77 0-583-261.23-583-583s261.23-583 583-583c154.62 0 302.91 61.423 412.24 170.76 1.172 1.171 1.172 3.071 0 4.242zm-6.369-2.115c-108-106.88-253.84-166.88-405.87-166.88-318.46 0-577 258.54-577 577s258.54 577 577 577c241.57 0 457.45-150.46 541.17-376.84l-542.2-197.34c-0.963-0.351-1.681-1.169-1.903-2.17s0.083-2.045 0.808-2.77z" fill="#0d1a16"/>
      <path d="m1874.1-58.122c-108.77-108.77-256.3-169.88-410.12-169.88-320.11 0-580 259.89-580 580s259.89 580 580 580c243.83 0 461.63-152.5 545.02-381.63l-354.26-128.94c-29.189 80.194-105.42 133.57-190.76 133.57-112.04 0-203-90.961-203-203s90.961-203 203-203c53.839 0 105.47 21.387 143.54 59.457z" fill="#38665b"/>
      <path d="m1876.2-56.001-266.58 266.58c-1.172 1.171-3.071 1.171-4.243 0-37.507-37.508-88.378-58.579-141.42-58.579-110.38 0-200 89.617-200 200s89.617 200 200 200c84.08 0 159.18-52.587 187.94-131.6 0.566-1.557 2.288-2.36 3.845-1.793l354.26 128.94c1.557 0.566 2.359 2.288 1.793 3.845-83.827 230.31-302.75 383.6-547.84 383.6-321.77 0-583-261.23-583-583s261.23-583 583-583c154.62 0 302.91 61.423 412.24 170.76 1.172 1.171 1.172 3.071 0 4.242zm-6.369-2.115c-108-106.88-253.84-166.88-405.87-166.88-318.46 0-577 258.54-577 577s258.54 577 577 577c241.57 0 457.45-150.46 541.17-376.84l-348.64-126.89c-30.363 79.813-106.93 132.73-192.53 132.73-113.69 0-206-92.306-206-206s92.306-206 206-206c53.634 0 105.11 20.916 143.53 58.23z" fill="#0d1a16"/>
      <path d="m1775.6-137.17c-93.116-59.321-201.23-90.833-311.63-90.833-320.11 0-580 259.89-580 580s259.89 580 580 580c243.83 0 461.63-152.5 545.02-381.63l-545.02-198.37z" fill="#7e95fc"/>
      <path d="m1778.2-135.56-309.62 486.01 541.51 197.09c1.557 0.566 2.359 2.288 1.793 3.845-83.827 230.31-302.75 383.6-547.84 383.6-321.77 0-583-261.23-583-583s261.23-583 583-583c110.98 0 219.65 31.675 313.25 91.303 1.397 0.89 1.808 2.744 0.918 4.142zm-6.677-0.687c-92.058-57.977-198.65-88.758-307.49-88.758-318.46 0-577 258.54-577 577s258.54 577 577 577c241.57 0 457.45-150.46 541.17-376.84l-542.2-197.34c-0.855-0.311-1.522-0.993-1.815-1.855-0.292-0.861-0.178-1.809 0.311-2.576z" fill="#0d1a16"/>
      <path d="m1775.6-137.17c-93.116-59.321-201.23-90.833-311.63-90.833-320.11 0-580 259.89-580 580s259.89 580 580 580c243.83 0 461.63-152.5 545.02-381.63l-327.01-119.02c-33.358 91.65-120.48 152.65-218.01 152.65-128.04 0-232-103.96-232-232s103.96-232 232-232c44.162 0 87.407 12.605 124.65 36.333z" fill="#3e4a7d"/>
      <path d="m1778.2-135.56-186.98 293.5c-0.891 1.397-2.745 1.809-4.142 0.918-36.765-23.421-79.451-35.863-123.04-35.863-126.39 0-229 102.61-229 229s102.61 229 229 229c96.271 0 182.26-60.212 215.19-150.68 0.566-1.557 2.288-2.36 3.845-1.793l327.01 119.02c1.557 0.566 2.359 2.288 1.793 3.845-83.827 230.31-302.75 383.6-547.84 383.6-321.77 0-583-261.23-583-583s261.23-583 583-583c110.98 0 219.65 31.675 313.25 91.303 1.397 0.89 1.808 2.744 0.918 4.142zm-6.677-0.687c-92.058-57.977-198.65-88.758-307.49-88.758-318.46 0-577 258.54-577 577s258.54 577 577 577c241.57 0 457.45-150.46 541.17-376.84-30.118-10.962-291.4-106.06-321.38-116.98-34.535 91.269-121.99 151.81-219.78 151.81-129.7 0-235-105.3-235-235s105.3-235 235-235c43.733 0 86.578 12.203 123.72 35.207z" fill="#0d1a16"/>
      <path d="m1662.4-193.02c-63.578-23.14-130.71-34.978-198.37-34.978-320.11 0-580 259.89-580 580s259.89 580 580 580c243.83 0 461.63-152.5 545.02-381.63l-545.02-198.37z" fill="#f382ff"/>
      <path d="m1665.2-192-197.35 542.2 542.2 197.35c1.557 0.566 2.359 2.288 1.793 3.845-83.827 230.31-302.75 383.6-547.84 383.6-321.77 0-583-261.23-583-583s261.23-583 583-583c68.008 0 135.49 11.899 199.4 35.159 1.557 0.567 2.359 2.288 1.793 3.845zm-6.667 0.775c-62.412-22.35-128.22-33.779-194.52-33.779-318.46 0-577 258.54-577 577s258.54 577 577 577c241.57 0 457.45-150.46 541.17-376.84l-542.2-197.34c-1.557-0.567-2.36-2.288-1.793-3.845z" fill="#0d1a16"/>
      <path d="m1662.4-193.02c-63.578-23.14-130.71-34.978-198.37-34.978-320.11 0-580 259.89-580 580s259.89 580 580 580c243.83 0 461.63-152.5 545.02-381.63l-354.26-128.94c-29.189 80.194-105.42 133.57-190.76 133.57-112.04 0-203-90.961-203-203s90.961-203 203-203c23.68 0 47.178 4.143 69.43 12.242z" fill="#794180"/>
      <path d="m1665.2-192-128.94 354.26c-0.567 1.557-2.288 2.36-3.845 1.793-21.923-7.979-45.074-12.061-68.404-12.061-110.38 0-200 89.617-200 200s89.617 200 200 200c84.08 0 159.18-52.587 187.94-131.6 0.566-1.557 2.288-2.36 3.845-1.793l354.26 128.94c1.557 0.566 2.359 2.288 1.793 3.845-83.827 230.31-302.75 383.6-547.84 383.6-321.77 0-583-261.23-583-583s261.23-583 583-583c68.008 0 135.49 11.899 199.4 35.159 1.557 0.567 2.359 2.288 1.793 3.845zm-6.667 0.775c-62.412-22.35-128.22-33.779-194.52-33.779-318.46 0-577 258.54-577 577s258.54 577 577 577c241.57 0 457.45-150.46 541.17-376.84l-348.64-126.89c-30.363 79.813-106.93 132.73-192.53 132.73-113.69 0-206-92.306-206-206s92.306-206 206-206c23.03 0 45.89 3.862 67.63 11.418z" fill="#0d1a16"/>
      <path d="m1539.7-223.04c-25.1-3.304-50.389-4.962-75.705-4.962-320.11 0-580 259.89-580 580s259.89 580 580 580c243.83 0 461.63-152.5 545.02-381.63l-545.02-198.37z" fill="#e7ffff"/>
      <path d="m1542.7-222.65-75.391 572.65 542.76 197.55c1.557 0.566 2.359 2.288 1.793 3.845-83.827 230.31-302.75 383.6-547.84 383.6-321.77 0-583-261.23-583-583s261.23-583 583-583c25.447 0 50.867 1.666 76.097 4.988 1.642 0.216 2.799 1.723 2.583 3.366zm-6.342 2.198c-23.992-3.031-48.153-4.552-72.338-4.552-318.46 0-577 258.54-577 577s258.54 577 577 577c241.57 0 457.45-150.46 541.17-376.84l-542.2-197.34c-1.322-0.481-2.132-1.816-1.948-3.211z" fill="#0d1a16"/>
      <path d="m1539.7-223.04c-25.1-3.304-50.389-4.962-75.705-4.962-320.11 0-580 259.89-580 580s259.89 580 580 580c243.83 0 461.63-152.5 545.02-381.63l-313.39-114.06c-35.443 97.379-128.01 162.19-231.63 162.19-136.05 0-246.5-110.45-246.5-246.5s110.45-246.5 246.5-246.5c10.759 0 21.507 0.704 32.175 2.109z" fill="#95b1ae"/>
      <path d="m1542.7-222.65-43.531 330.65c-0.216 1.643-1.723 2.799-3.366 2.583-10.537-1.387-21.155-2.083-31.783-2.083-134.39 0-243.5 109.11-243.5 243.5s109.11 243.5 243.5 243.5c102.37 0 193.8-64.025 228.82-160.22 0.567-1.557 2.288-2.36 3.845-1.793l313.39 114.06c1.557 0.566 2.359 2.288 1.793 3.845-83.827 230.31-302.75 383.6-547.84 383.6-321.77 0-583-261.23-583-583s261.23-583 583-583c25.447 0 50.867 1.666 76.097 4.988 1.642 0.216 2.799 1.723 2.583 3.366zm-6.342 2.198c-23.992-3.031-48.153-4.552-72.338-4.552-318.46 0-577 258.54-577 577s258.54 577 577 577c241.57 0 457.45-150.46 541.17-376.84l-307.76-112.02c-36.62 96.997-129.52 161.35-233.41 161.35-137.7 0-249.5-111.8-249.5-249.5s111.8-249.5 249.5-249.5c9.89 0 19.771 0.588 29.59 1.761z" fill="#0d1a16"/>
      <path d="m1388.3-223.04c-288.57 37.991-504.3 283.98-504.3 575.04 0 320.11 259.89 580 580 580 243.83 0 461.63-152.5 545.02-381.63l-545.02-198.37z" fill="#f382ff"/>
      <path d="m1391.3-223.43 75.468 573.23 543.31 197.75c1.557 0.566 2.359 2.288 1.793 3.845-83.827 230.31-302.75 383.6-547.84 383.6-321.77 0-583-261.23-583-583 0-292.57 216.84-539.82 506.9-578.01 1.643-0.217 3.15 0.94 3.366 2.582zm-5.556 3.766c-285.59 39.087-498.71 283.11-498.71 571.66 0 318.46 258.54 577 577 577 241.57 0 457.45-150.46 541.17-376.84l-542.2-197.34c-1.051-0.383-1.802-1.318-1.948-2.427z" fill="#0d1a16"/>
      <path d="m1388.3-223.04c-288.57 37.991-504.3 283.98-504.3 575.04 0 320.11 259.89 580 580 580 243.83 0 461.63-152.5 545.02-381.63l-354.26-128.94c-29.189 80.194-105.42 133.57-190.76 133.57-112.04 0-203-90.961-203-203 0-101.87 75.503-187.97 176.5-201.26z" fill="#794180"/>
      <path d="m1391.3-223.43 49.209 373.78c0.216 1.643-0.941 3.15-2.583 3.366-99.508 13.1-173.9 97.923-173.9 198.29 0 110.38 89.617 200 200 200 84.08 0 159.18-52.587 187.94-131.6 0.566-1.557 2.288-2.36 3.845-1.793l354.26 128.94c1.557 0.566 2.359 2.288 1.793 3.845-83.827 230.31-302.75 383.6-547.84 383.6-321.77 0-583-261.23-583-583 0-292.57 216.84-539.82 506.9-578.01 1.643-0.217 3.15 0.94 3.366 2.582zm-5.556 3.766c-285.59 39.087-498.71 283.11-498.71 571.66 0 318.46 258.54 577 577 577 241.57 0 457.45-150.46 541.17-376.84l-348.64-126.89c-30.363 79.813-106.93 132.73-192.53 132.73-113.69 0-206-92.306-206-206 0-102.38 75.141-189.05 176.14-203.82z" fill="#0d1a16"/>
      <path d="m1265.6-193.02c-229.13 83.395-381.63 301.19-381.63 545.02 0 320.11 259.89 580 580 580 243.83 0 461.63-152.5 545.02-381.63l-545.02-198.37z" fill="#7e95fc"/>
      <path d="m1268.4-194.05 197.89 543.71 543.71 197.89c1.557 0.566 2.359 2.288 1.793 3.845-83.827 230.31-302.75 383.6-547.84 383.6-321.77 0-583-261.23-583-583 0-245.09 153.29-464.01 383.6-547.84 1.557-0.566 3.279 0.236 3.845 1.793zm-4.609 4.879c-226.37 83.718-376.84 299.6-376.84 541.17 0 318.46 258.54 577 577 577 241.57 0 457.45-150.46 541.17-376.84l-542.2-197.34c-0.833-0.303-1.49-0.96-1.793-1.793z" fill="#0d1a16"/>
      <path d="m1265.6-193.02c-229.13 83.395-381.63 301.19-381.63 545.02 0 320.11 259.89 580 580 580 243.83 0 461.63-152.5 545.02-381.63l-327.01-119.02c-33.358 91.65-120.48 152.65-218.01 152.65-128.04 0-232-103.96-232-232 0-97.532 61.001-184.65 152.65-218.01z" fill="#3e4a7d"/>
      <path d="m1268.4-194.05 119.02 327.01c0.567 1.557-0.236 3.279-1.793 3.845-90.465 32.927-150.68 118.92-150.68 215.19 0 126.39 102.61 229 229 229 96.271 0 182.26-60.212 215.19-150.68 0.566-1.557 2.288-2.36 3.845-1.793l327.01 119.02c1.557 0.566 2.359 2.288 1.793 3.845-83.827 230.31-302.75 383.6-547.84 383.6-321.77 0-583-261.23-583-583 0-245.09 153.29-464.01 383.6-547.84 1.557-0.566 3.279 0.236 3.845 1.793zm-4.609 4.879c-226.37 83.718-376.84 299.6-376.84 541.17 0 318.46 258.54 577 577 577 241.57 0 457.45-150.46 541.17-376.84-30.118-10.962-291.4-106.06-321.38-116.98-34.535 91.269-121.99 151.81-219.78 151.81-129.7 0-235-105.3-235-235 0-97.793 60.544-185.25 151.81-219.78z" fill="#0d1a16"/>
      <path d="m1152.4-137.17c-167.16 106.49-268.37 290.97-268.37 489.17 0 320.11 259.89 580 580 580 243.83 0 461.63-152.5 545.02-381.63l-545.02-198.37z" fill="#7ee6cc"/>
      <path d="m1154.9-138.78 311.09 488.31 544.06 198.02c1.557 0.566 2.359 2.288 1.793 3.845-83.827 230.31-302.75 383.6-547.84 383.6-321.77 0-583-261.23-583-583 0-199.22 101.73-384.65 269.75-491.7 1.398-0.89 3.252-0.479 4.142 0.918zm-3.444 5.761c-164.79 106.18-264.45 288.84-264.45 485.02 0 318.46 258.54 577 577 577 241.57 0 457.45-150.46 541.17-376.84l-542.2-197.34c-0.621-0.226-1.149-0.65-1.504-1.207z" fill="#0d1a16"/>
      <path d="m1152.4-137.17c-167.16 106.49-268.37 290.97-268.37 489.17 0 320.11 259.89 580 580 580 243.83 0 461.63-152.5 545.02-381.63l-354.26-128.94c-29.189 80.194-105.42 133.57-190.76 133.57-112.04 0-203-90.961-203-203 0-69.37 35.423-133.94 93.928-171.21z" fill="#38665b"/>
      <path d="m1154.9-138.78 202.56 317.96c0.891 1.397 0.479 3.251-0.918 4.142-57.641 36.721-92.54 100.33-92.54 168.68 0 110.38 89.617 200 200 200 84.08 0 159.18-52.587 187.94-131.6 0.566-1.557 2.288-2.36 3.845-1.793l354.26 128.94c1.557 0.566 2.359 2.288 1.793 3.845-83.827 230.31-302.75 383.6-547.84 383.6-321.77 0-583-261.23-583-583 0-199.22 101.73-384.65 269.75-491.7 1.398-0.89 3.252-0.479 4.142 0.918zm-3.444 5.761c-164.79 106.18-264.45 288.84-264.45 485.02 0 318.46 258.54 577 577 577 241.57 0 457.45-150.46 541.17-376.84l-348.64-126.89c-30.363 79.813-106.93 132.73-192.53 132.73-113.69 0-206-92.306-206-206 0-69.394 34.931-134.05 92.798-172.11z" fill="#0d1a16"/>
      <path d="m1053.9-58.122c-108.77 108.77-169.88 256.3-169.88 410.12 0 320.11 259.89 580 580 580 243.83 0 461.63-152.5 545.02-381.63l-545.02-198.37z" fill="#b9fc7e"/>
      <path d="m1056-60.243 409.65 409.65 544.4 198.14c1.557 0.566 2.359 2.288 1.793 3.845-83.827 230.31-302.75 383.6-547.84 383.6-321.77 0-583-261.23-583-583 0-154.62 61.423-302.91 170.76-412.24 1.171-1.172 3.071-1.172 4.242 0zm-2.115 6.369c-106.88 108-166.88 253.84-166.88 405.87 0 318.46 258.54 577 577 577 241.57 0 457.45-150.46 541.17-376.84l-542.2-197.34c-0.412-0.15-0.786-0.388-1.095-0.698z" fill="#0d1a16"/>
      <path d="m1053.9-58.122c-108.77 108.77-169.88 256.3-169.88 410.12 0 320.11 259.89 580 580 580 243.83 0 461.63-152.5 545.02-381.63l-327.01-119.02c-33.358 91.65-120.48 152.65-218.01 152.65-128.04 0-232-103.96-232-232 0-61.53 24.443-120.54 67.951-164.05z" fill="#5c7d3e"/>
      <path d="m1056-60.243 246.07 246.07c1.171 1.171 1.171 3.071 0 4.243-42.946 42.945-67.073 101.19-67.073 161.93 0 126.39 102.61 229 229 229 96.271 0 182.26-60.212 215.19-150.68 0.566-1.557 2.288-2.36 3.845-1.793l327.01 119.02c1.557 0.566 2.359 2.288 1.793 3.845-83.827 230.31-302.75 383.6-547.84 383.6-321.77 0-583-261.23-583-583 0-154.62 61.423-302.91 170.76-412.24 1.171-1.172 3.071-1.172 4.242 0zm-2.115 6.369c-106.88 108-166.88 253.84-166.88 405.87 0 318.46 258.54 577 577 577 241.57 0 457.45-150.46 541.17-376.84-30.118-10.962-291.4-106.06-321.38-116.98-34.535 91.269-121.99 151.81-219.78 151.81-129.7 0-235-105.3-235-235 0-61.325 23.97-120.18 66.722-164.04z" fill="#0d1a16"/>
      <path d="m974.83 40.366c-59.321 93.116-90.833 201.23-90.833 311.63 0 320.11 259.89 580 580 580 243.83 0 461.63-152.5 545.02-381.63l-545.02-198.37z" fill="#f2d479"/>
      <path d="m976.44 37.836 488.89 311.46 544.71 198.26c1.557 0.566 2.359 2.288 1.793 3.845-83.827 230.31-302.75 383.6-547.84 383.6-321.77 0-583-261.23-583-583 0-110.98 31.675-219.65 91.303-313.25 0.89-1.397 2.744-1.808 4.142-0.918zm-0.687 6.676c-57.977 92.059-88.758 198.65-88.758 307.49 0 318.46 258.54 577 577 577 241.57 0 457.45-150.46 541.17-376.84l-542.2-197.34c-0.205-0.075-0.402-0.171-0.586-0.289z" fill="#0d1a16"/>
      <path d="m974.83 40.366c-59.321 93.116-90.833 201.23-90.833 311.63 0 320.11 259.89 580 580 580 243.83 0 461.63-152.5 545.02-381.63l-354.26-128.94c-29.189 80.194-105.42 133.57-190.76 133.57-112.04 0-203-90.961-203-203 0-38.642 11.029-76.481 31.792-109.07z" fill="#736439"/>
      <path d="m976.44 37.836 317.96 202.56c1.398 0.89 1.809 2.745 0.919 4.142-20.456 32.109-31.322 69.389-31.322 107.46 0 110.38 89.617 200 200 200 84.08 0 159.18-52.587 187.94-131.6 0.566-1.557 2.288-2.36 3.845-1.793l354.26 128.94c1.557 0.566 2.359 2.288 1.793 3.845-83.827 230.31-302.75 383.6-547.84 383.6-321.77 0-583-261.23-583-583 0-110.98 31.675-219.65 91.303-313.25 0.89-1.397 2.744-1.808 4.142-0.918zm-0.687 6.676c-57.977 92.059-88.758 198.65-88.758 307.49 0 318.46 258.54 577 577 577 241.57 0 457.45-150.46 541.17-376.84l-348.64-126.89c-30.363 79.813-106.93 132.73-192.53 132.73-113.69 0-206-92.306-206-206 0-38.213 10.628-75.652 30.668-108.14z" fill="#0d1a16"/>
      <path d="m918.98 153.63c-23.14 63.578-34.978 130.71-34.978 198.37 0 320.11 259.89 580 580 580 243.83 0 461.63-152.5 545.02-381.63l-545.02-198.37z" fill="#ff758f"/>
      <path d="m920 150.81 1090 396.74c1.557 0.566 2.359 2.288 1.793 3.845-83.827 230.31-302.75 383.6-547.84 383.6-321.77 0-583-261.23-583-583 0-68.008 11.899-135.49 35.159-199.4 0.567-1.557 2.288-2.359 3.845-1.793zm0.775 6.667c-22.35 62.412-33.779 128.22-33.779 194.52 0 318.46 258.54 577 577 577 241.57 0 457.45-150.46 541.17-376.84l-542.2-197.34z" fill="#0d1a16"/>
      <path d="m918.98 153.63c-23.14 63.578-34.978 130.71-34.978 198.37 0 320.11 259.89 580 580 580 243.83 0 461.63-152.5 545.02-381.63l-327.01-119.02c-33.358 91.65-120.48 152.65-218.01 152.65-128.04 0-232-103.96-232-232 0-27.063 4.735-53.918 13.991-79.349z" fill="#8c4151"/>
      <path d="m920 150.81 327.01 119.02c1.557 0.567 2.36 2.288 1.793 3.845-9.136 25.103-13.81 51.61-13.81 78.323 0 126.39 102.61 229 229 229 96.271 0 182.26-60.212 215.19-150.68 0.566-1.557 2.288-2.36 3.845-1.793l327.01 119.02c1.557 0.566 2.359 2.288 1.793 3.845-83.827 230.31-302.75 383.6-547.84 383.6-321.77 0-583-261.23-583-583 0-68.008 11.899-135.49 35.159-199.4 0.567-1.557 2.288-2.359 3.845-1.793zm0.775 6.667c-22.35 62.412-33.779 128.22-33.779 194.52 0 318.46 258.54 577 577 577 241.57 0 457.45-150.46 541.17-376.84-30.118-10.962-291.4-106.06-321.38-116.98-34.535 91.269-121.99 151.81-219.78 151.81-129.7 0-235-105.3-235-235 0-26.413 4.453-52.629 13.164-77.549z" fill="#0d1a16"/>
      <path d="m888.96 276.3c-3.304 25.1-4.962 50.389-4.962 75.705 0 320.11 259.89 580 580 580 243.83 0 461.63-152.5 545.02-381.63l-545.02-198.37z" fill="#e7ffff"/>
      <path d="m889.35 273.32 575.04 75.705c0.216 0.028 0.429 0.08 0.634 0.155l545.02 198.37c1.557 0.566 2.359 2.288 1.793 3.845-83.827 230.31-302.75 383.6-547.84 383.6-321.77 0-583-261.23-583-583 0-25.447 1.666-50.867 4.988-76.097 0.216-1.642 1.723-2.799 3.366-2.582zm2.198 6.341c-3.031 23.992-4.552 48.153-4.552 72.338 0 318.46 258.54 577 577 577 241.57 0 457.45-150.46 541.17-376.84l-541.89-197.23z" fill="#0d1a16"/>
      <path d="m888.96 276.3c-3.304 25.1-4.962 50.389-4.962 75.705 0 320.11 259.89 580 580 580 243.83 0 461.63-152.5 545.02-381.63l-272.51-99.186c-41.698 114.56-150.6 190.81-272.51 190.81-160.06 0-290-129.94-290-290 0-12.658 0.829-25.303 2.481-37.853z" fill="#95b1ae"/>
      <path d="m889.35 273.32 287.52 37.852c1.642 0.216 2.799 1.723 2.582 3.366-1.635 12.42-2.455 24.934-2.455 37.461 0 158.4 128.6 287 287 287 120.65 0 228.43-75.462 269.69-188.84 0.566-1.557 2.288-2.36 3.845-1.793l272.51 99.186c1.557 0.566 2.359 2.288 1.793 3.845-83.827 230.31-302.75 383.6-547.84 383.6-321.77 0-583-261.23-583-583 0-25.447 1.666-50.867 4.988-76.097 0.216-1.642 1.723-2.799 3.366-2.582zm2.198 6.341c-3.031 23.992-4.552 48.153-4.552 72.338 0 318.46 258.54 577 577 577 241.57 0 457.45-150.46 541.17-376.84l-266.88-97.136c-42.878 114.18-152.11 189.97-274.29 189.97-161.71 0-293-131.29-293-293 0-11.789 0.712-23.566 2.13-35.268z" fill="#0d1a16"/>
      <path d="m888.96 427.7c37.991 288.57 283.98 504.3 575.04 504.3 243.83 0 461.63-152.5 545.02-381.63l-545.02-198.37z" fill="#ff758f"/>
      <path d="m888.57 424.73 575.04-75.705c0.479-0.063 0.965-0.01 1.418 0.155l545.02 198.37c1.557 0.566 2.359 2.288 1.793 3.845-83.827 230.31-302.75 383.6-547.84 383.6-292.57 0-539.82-216.84-578.01-506.9-0.217-1.643 0.94-3.15 2.582-3.366zm3.766 5.556c39.087 285.59 283.11 498.71 571.66 498.71 241.57 0 457.45-150.46 541.17-376.84l-541.5-197.09z" fill="#0d1a16"/>
      <path d="m888.96 427.7c37.991 288.57 283.98 504.3 575.04 504.3 243.83 0 461.63-152.5 545.02-381.63l-299.76-109.1c-37.528 103.11-135.54 171.73-245.26 171.73-130.98 0-241.67-97.075-258.77-226.93z" fill="#8c4151"/>
      <path d="m888.57 424.73 316.27-41.638c1.643-0.216 3.15 0.94 3.366 2.583 16.9 128.36 126.32 224.32 255.79 224.32 108.46 0 205.34-67.837 242.44-169.76 0.566-1.557 2.288-2.36 3.845-1.793l299.76 109.1c1.557 0.566 2.359 2.288 1.793 3.845-83.827 230.31-302.75 383.6-547.84 383.6-292.57 0-539.82-216.84-578.01-506.9-0.217-1.643 0.94-3.15 2.582-3.366zm3.766 5.556c39.087 285.59 283.11 498.71 571.66 498.71 241.57 0 457.45-150.46 541.17-376.84l-294.13-107.06c-38.706 102.72-137.05 170.89-247.04 170.89-131.48 0-242.76-96.713-261.33-226.57z" fill="#0d1a16"/>
      <path d="m918.98 550.37c83.395 229.13 301.19 381.63 545.02 381.63s461.63-152.5 545.02-381.63l-545.02-198.37z" fill="#f2d479"/>
      <path d="m917.95 547.55 545.02-198.37c0.663-0.241 1.389-0.241 2.052 0l545.02 198.37c1.557 0.566 2.359 2.288 1.793 3.845-83.827 230.31-302.75 383.6-547.84 383.6s-464.01-153.29-547.84-383.6c-0.566-1.557 0.236-3.279 1.793-3.845zm4.879 4.609c83.718 226.37 299.6 376.84 541.17 376.84s457.45-150.46 541.17-376.84l-541.17-196.97z" fill="#0d1a16"/>
      <path d="m918.98 550.37c83.395 229.13 301.19 381.63 545.02 381.63s461.63-152.5 545.02-381.63l-245.26-89.268c-45.867 126.02-165.66 209.9-299.76 209.9s-253.9-83.876-299.76-209.9z" fill="#736439"/>
      <path d="m917.95 547.55 245.26-89.268c1.557-0.566 3.278 0.236 3.845 1.793 45.436 124.84 164.1 207.92 296.94 207.92s251.51-83.087 296.94-207.92c0.567-1.557 2.288-2.359 3.845-1.793l245.26 89.268c1.557 0.566 2.359 2.288 1.793 3.845-83.827 230.31-302.75 383.6-547.84 383.6s-464.01-153.29-547.84-383.6c-0.566-1.557 0.236-3.279 1.793-3.845zm4.879 4.609c83.718 226.37 299.6 376.84 541.17 376.84s457.45-150.46 541.17-376.84l-239.63-87.217c-47.048 125.64-167.18 209.06-301.54 209.06s-254.49-83.418-301.54-209.06z" fill="#0d1a16"/>
      <path d="m974.83 663.63c106.49 167.16 290.97 268.37 489.17 268.37 243.83 0 461.63-152.5 545.02-381.63l-545.02-198.37z" fill="#b9fc7e"/>
      <path d="m973.22 661.1 489.17-311.63c0.787-0.501 1.762-0.608 2.638-0.289l545.02 198.37c1.557 0.566 2.359 2.288 1.793 3.845-83.827 230.31-302.75 383.6-547.84 383.6-199.22 0-384.65-101.73-491.7-269.75-0.89-1.398-0.479-3.252 0.918-4.142zm5.761 3.444c106.18 164.79 288.84 264.45 485.02 264.45 241.57 0 457.45-150.46 541.17-376.84-42.117-15.329-540.8-196.84-540.8-196.84z" fill="#0d1a16"/>
      <path d="m974.83 663.63c106.49 167.16 290.97 268.37 489.17 268.37 243.83 0 461.63-152.5 545.02-381.63l-299.76-109.1c-37.528 103.11-135.54 171.73-245.26 171.73-89.189 0-172.2-45.543-220.12-120.76z" fill="#5c7d3e"/>
      <path d="m973.22 661.1 269.04-171.4c1.397-0.89 3.252-0.479 4.142 0.918 47.371 74.357 129.43 119.38 217.6 119.38 108.46 0 205.34-67.837 242.44-169.76 0.566-1.557 2.288-2.36 3.845-1.793l299.76 109.1c1.557 0.566 2.359 2.288 1.793 3.845-83.827 230.31-302.75 383.6-547.84 383.6-199.22 0-384.65-101.73-491.7-269.75-0.89-1.398-0.479-3.252 0.918-4.142zm5.761 3.444c106.18 164.79 288.84 264.45 485.02 264.45 241.57 0 457.45-150.46 541.17-376.84l-294.13-107.06c-38.706 102.72-137.05 170.89-247.04 170.89-89.214 0-172.32-45.05-221.03-119.63z" fill="#0d1a16"/>
      <path d="m1053.9 762.12c108.77 108.77 256.3 169.88 410.12 169.88 243.83 0 461.63-152.5 545.02-381.63l-545.02-198.37z" fill="#7ee6cc"/>
      <path d="m1051.8 760 410.12-410.12c0.824-0.825 2.051-1.097 3.147-0.698l545.02 198.37c1.557 0.566 2.359 2.288 1.793 3.845-83.827 230.31-302.75 383.6-547.84 383.6-154.62 0-302.91-61.423-412.24-170.76-1.172-1.171-1.172-3.071 0-4.242zm6.369 2.115c108 106.88 253.84 166.88 405.87 166.88 241.57 0 457.45-150.46 541.17-376.84l-540.4-196.69z" fill="#0d1a16"/>
      <path d="m1053.9 762.12c108.77 108.77 256.3 169.88 410.12 169.88 243.83 0 461.63-152.5 545.02-381.63l-245.26-89.268c-45.867 126.02-165.66 209.9-299.76 209.9-84.604 0-165.74-33.609-225.57-93.433z" fill="#38665b"/>
      <path d="m1051.8 760 184.56-184.56c1.171-1.172 3.071-1.172 4.242 0 59.262 59.261 139.64 92.554 223.45 92.554 132.85 0 251.51-83.087 296.94-207.92 0.567-1.557 2.288-2.359 3.845-1.793l245.26 89.268c1.557 0.566 2.359 2.288 1.793 3.845-83.827 230.31-302.75 383.6-547.84 383.6-154.62 0-302.91-61.423-412.24-170.76-1.172-1.171-1.172-3.071 0-4.242zm6.369 2.115c108 106.88 253.84 166.88 405.87 166.88 241.57 0 457.45-150.46 541.17-376.84l-239.63-87.217c-47.048 125.64-167.18 209.06-301.54 209.06-84.399 0-165.38-33.135-225.56-92.2z" fill="#0d1a16"/>
      <path d="m1152.4 841.17c93.116 59.321 201.23 90.833 311.63 90.833 243.83 0 461.63-152.5 545.02-381.63l-545.02-198.37z" fill="#7e95fc"/>
      <path d="m1149.8 839.56 311.63-489.17c0.756-1.186 2.234-1.688 3.556-1.207l545.02 198.37c1.557 0.566 2.359 2.288 1.793 3.845-83.827 230.31-302.75 383.6-547.84 383.6-110.98 0-219.65-31.675-313.25-91.303-1.397-0.89-1.808-2.744-0.918-4.142zm6.676 0.687c92.059 57.977 198.65 88.758 307.49 88.758 241.57 0 457.45-150.46 541.17-376.84l-539.93-196.52z" fill="#0d1a16"/>
      <path d="m1152.4 841.17c93.116 59.321 201.23 90.833 311.63 90.833 243.83 0 461.63-152.5 545.02-381.63l-299.76-109.1c-37.528 103.11-135.54 171.73-245.26 171.73-49.683 0-98.333-14.18-140.24-40.875z" fill="#3e4a7d"/>
      <path d="m1149.8 839.56 171.4-269.04c0.89-1.397 2.744-1.808 4.142-0.918 41.42 26.388 89.511 40.405 138.62 40.405 108.46 0 205.34-67.837 242.44-169.76 0.566-1.557 2.288-2.36 3.845-1.793l299.76 109.1c1.557 0.566 2.359 2.288 1.793 3.845-83.827 230.31-302.75 383.6-547.84 383.6-110.98 0-219.65-31.675-313.25-91.303-1.397-0.89-1.808-2.744-0.918-4.142zm6.676 0.687c92.059 57.977 198.65 88.758 307.49 88.758 241.57 0 457.45-150.46 541.17-376.84l-294.13-107.06c-38.706 102.72-137.05 170.89-247.04 170.89-49.253 0-97.504-13.778-139.31-39.747z" fill="#0d1a16"/>
      <path d="m1265.6 897.02c63.578 23.14 130.71 34.978 198.37 34.978 243.83 0 461.63-152.5 545.02-381.63l-545.02-198.37z" fill="#f382ff"/>
      <path d="m1262.8 896 198.37-545.02c0.567-1.557 2.288-2.36 3.845-1.793l545.02 198.37c1.557 0.566 2.359 2.288 1.793 3.845-83.827 230.31-302.75 383.6-547.84 383.6-68.008 0-135.49-11.899-199.4-35.159-1.557-0.567-2.359-2.288-1.793-3.845zm6.667-0.775c62.412 22.35 128.22 33.779 194.52 33.779 241.57 0 457.45-150.46 541.17-376.84l-539.38-196.32z" fill="#0d1a16"/>
      <path d="m1265.6 897.02c63.578 23.14 130.71 34.978 198.37 34.978 243.83 0 461.63-152.5 545.02-381.63l-245.26-89.268c-45.867 126.02-165.66 209.9-299.76 209.9-37.212 0-74.137-6.511-109.1-19.238z" fill="#794180"/>
      <path d="m1262.8 896 89.268-245.26c0.566-1.557 2.288-2.36 3.845-1.793 34.638 12.607 71.216 19.057 108.08 19.057 132.85 0 251.51-83.087 296.94-207.92 0.567-1.557 2.288-2.359 3.845-1.793l245.26 89.268c1.557 0.566 2.359 2.288 1.793 3.845-83.827 230.31-302.75 383.6-547.84 383.6-68.008 0-135.49-11.899-199.4-35.159-1.557-0.567-2.359-2.288-1.793-3.845zm6.667-0.775c62.412 22.35 128.22 33.779 194.52 33.779 241.57 0 457.45-150.46 541.17-376.84l-239.63-87.217c-47.048 125.64-167.18 209.06-301.54 209.06-36.562 0-72.849-6.227-107.31-18.406z" fill="#0d1a16"/>
      <path d="m1388.3 927.04c25.1 3.304 50.389 4.962 75.705 4.962 243.83 0 461.63-152.5 545.02-381.63l-545.02-198.37z" fill="#e7ffff"/>
      <path d="m1385.3 926.65 75.706-575.04c0.118-0.901 0.64-1.701 1.418-2.173 0.777-0.472 1.727-0.565 2.582-0.254l545.02 198.37c1.557 0.566 2.359 2.288 1.793 3.845-83.827 230.31-302.75 383.6-547.84 383.6-25.447 0-50.867-1.666-76.097-4.988-1.642-0.216-2.799-1.723-2.583-3.366zm6.342-2.198c23.992 3.031 48.153 4.552 72.338 4.552 241.57 0 457.45-150.46 541.17-376.84l-538.68-196.06z" fill="#0d1a16"/>
      <path d="m1388.3 927.04c25.1 3.304 50.389 4.962 75.705 4.962 243.83 0 461.63-152.5 545.02-381.63l-218.01-79.349c-50.037 137.48-180.71 228.98-327.01 228.98-15.19 0-30.363-0.995-45.423-2.977z" fill="#95b1ae"/>
      <path d="m1385.3 926.65 30.283-230.02c0.216-1.642 1.723-2.799 3.365-2.583 14.93 1.966 29.973 2.952 45.032 2.952 145.04 0 274.59-90.712 324.19-227 0.567-1.557 2.288-2.36 3.845-1.793l218.01 79.349c1.557 0.566 2.359 2.288 1.793 3.845-83.827 230.31-302.75 383.6-547.84 383.6-25.447 0-50.867-1.666-76.097-4.988-1.642-0.216-2.799-1.723-2.583-3.366zm6.342-2.198c23.992 3.031 48.153 4.552 72.338 4.552 241.57 0 457.45-150.46 541.17-376.84l-212.38-77.298c-51.219 137.09-182.24 228.14-328.79 228.14-14.321 0-28.627-0.876-42.839-2.624z" fill="#0d1a16"/>
      <path d="m1539.7 927.04c214.43-28.231 395.34-173.43 469.32-376.67l-545.02-198.37z" fill="#f382ff"/>
      <path d="m1536.7 927.43-75.705-575.04c-0.137-1.04 0.279-2.075 1.096-2.732 0.818-0.656 1.919-0.838 2.904-0.479l545.02 198.37c1.557 0.566 2.359 2.288 1.793 3.845-74.356 204.29-256.2 350.24-471.74 378.61-1.643 0.217-3.15-0.94-3.366-2.582zm5.556-3.766c211.03-28.894 389-171.73 462.88-371.5l-537.55-195.65z" fill="#0d1a16"/>
      <path d="m1539.7 927.04c214.43-28.231 395.34-173.43 469.32-376.67l-245.26-89.268c-40.685 111.78-140.19 191.64-258.12 207.17z" fill="#794180"/>
      <path d="m1536.7 927.43-34.067-258.77c-0.217-1.642 0.94-3.149 2.582-3.365 116.83-15.381 215.39-94.488 255.7-205.22 0.567-1.557 2.288-2.359 3.845-1.793l245.26 89.268c1.557 0.566 2.359 2.288 1.793 3.845-74.356 204.29-256.2 350.24-471.74 378.61-1.643 0.217-3.15-0.94-3.366-2.582zm5.556-3.766c211.03-28.894 389-171.73 462.88-371.5l-239.63-87.217c-41.354 110.42-139.78 189.42-256.54 205.9z" fill="#0d1a16"/>
      <path d="m1662.4 897.02c161.1-58.638 288.01-185.55 346.65-346.65l-545.02-198.37z" fill="#7e95fc"/>
      <path d="m1659.6 898.05-198.37-545.02c-0.399-1.096-0.127-2.323 0.698-3.147 0.824-0.825 2.051-1.097 3.147-0.698l545.02 198.37c1.557 0.566 2.359 2.288 1.793 3.845-58.941 161.94-186.5 289.5-348.44 348.44-1.557 0.566-3.279-0.236-3.845-1.793zm4.609-4.879c158-58.436 282.57-183.01 341.01-341.01-39.441-14.355-479.28-174.44-536.15-195.14z" fill="#0d1a16"/>
      <path d="m1662.4 897.02c161.1-58.638 288.01-185.55 346.65-346.65l-299.76-109.1c-26.387 72.497-83.496 129.61-155.99 155.99z" fill="#3e4a7d"/>
      <path d="m1659.6 898.05-109.1-299.76c-0.566-1.557 0.236-3.279 1.793-3.845 71.664-26.084 128.12-82.536 154.2-154.2 0.566-1.557 2.288-2.36 3.845-1.793l299.76 109.1c1.557 0.566 2.359 2.288 1.793 3.845-58.941 161.94-186.5 289.5-348.44 348.44-1.557 0.566-3.279-0.236-3.845-1.793zm4.609-4.879c158-58.436 282.57-183.01 341.01-341.01l-294.13-107.06c-26.78 71.058-82.872 127.15-153.93 153.93z" fill="#0d1a16"/>
      <path d="m1775.6 841.17c107.68-68.601 189.72-170.82 233.39-290.8l-545.02-198.37z" fill="#7ee6cc"/>
      <path d="m1773.1 842.78-311.63-489.17c-0.691-1.084-0.614-2.487 0.19-3.49 0.805-1.002 2.158-1.381 3.366-0.941l545.02 198.37c1.557 0.566 2.359 2.288 1.793 3.845-43.894 120.6-126.36 223.34-234.6 292.3-1.398 0.89-3.252 0.479-4.142-0.918zm3.444-5.761c105.04-67.689 185.27-167.65 228.62-284.86l-533.89-194.32z" fill="#0d1a16"/>
      <path d="m1775.6 841.17c107.68-68.601 189.72-170.82 233.39-290.8l-245.26-89.268c-24.018 65.988-69.138 122.21-128.36 159.94z" fill="#38665b"/>
      <path d="m1773.1 842.78-140.24-220.12c-0.89-1.398-0.479-3.252 0.919-4.142 58.668-37.376 103.36-93.066 127.16-158.43 0.567-1.557 2.288-2.359 3.845-1.793l245.26 89.268c1.557 0.566 2.359 2.288 1.793 3.845-43.894 120.6-126.36 223.34-234.6 292.3-1.398 0.89-3.252 0.479-4.142-0.918zm3.444-5.761c105.04-67.689 185.27-167.65 228.62-284.86l-239.63-87.217c-24.142 64.456-68.306 119.48-126.01 157z" fill="#0d1a16"/>
      <path d="m1874.1 762.12c59.887-59.888 105.93-132.16 134.9-211.75l-545.02-198.37z" fill="#b9fc7e"/>
      <path d="m1872 764.24-410.12-410.12c-0.995-0.994-1.165-2.547-0.409-3.733s2.234-1.688 3.556-1.207l545.02 198.37c1.557 0.566 2.359 2.288 1.793 3.845-29.117 79.998-75.4 152.65-135.6 212.84-1.171 1.172-3.071 1.172-4.242 0zm2.115-6.369c57.844-58.449 102.53-128.59 131.05-205.71l-529.48-192.72z" fill="#0d1a16"/>
      <path d="m1874.1 762.12c59.887-59.888 105.93-132.16 134.9-211.75l-299.76-109.1c-13.035 35.814-33.756 68.338-60.705 95.288z" fill="#5c7d3e"/>
      <path d="m1872 764.24-225.57-225.57c-1.172-1.171-1.172-3.071 0-4.242 26.639-26.64 47.121-58.791 60.007-94.193 0.566-1.557 2.288-2.36 3.845-1.793l299.76 109.1c1.557 0.566 2.359 2.288 1.793 3.845-29.117 79.998-75.4 152.65-135.6 212.84-1.171 1.172-3.071 1.172-4.242 0zm2.115-6.369c57.844-58.449 102.53-128.59 131.05-205.71l-294.13-107.06c-12.882 34.18-32.718 65.315-58.252 91.436z" fill="#0d1a16"/>
      <path d="m1953.2 663.63c31.79-49.9 55.757-104.37 71.07-161.52l-560.24-150.12z" fill="#f2d479"/>
      <path d="m1951.6 666.16-489.17-311.63c-1.249-0.795-1.73-2.383-1.134-3.738s2.092-2.073 3.522-1.69l560.24 150.12c1.601 0.429 2.551 2.074 2.122 3.675-15.393 57.444-39.484 112.2-71.438 162.35-0.89 1.397-2.744 1.808-4.142 0.918zm0.687-6.676c30.295-48.104 53.315-100.42 68.313-155.25l-538.5-144.29z" fill="#0d1a16"/>
      <path d="m1953.2 663.63c31.79-49.9 55.757-104.37 71.07-161.52l-252.11-67.552c-8.422 31.432-21.604 61.391-39.088 88.836z" fill="#736439"/>
      <path d="m1951.6 666.16-220.12-140.24c-1.397-0.89-1.809-2.745-0.918-4.142 17.32-27.187 30.378-56.864 38.721-88 0.428-1.601 2.073-2.55 3.674-2.121l252.11 67.551c1.601 0.429 2.551 2.074 2.122 3.675-15.393 57.444-39.484 112.2-71.438 162.35-0.89 1.397-2.744 1.808-4.142 0.918zm0.687-6.676c30.295-48.104 53.315-100.42 68.313-155.25l-246.32-66c-8.258 29.709-20.741 58.079-37.066 84.239z" fill="#0d1a16"/>
      <path d="m2009 550.37c14.44-39.675 24.505-80.807 30.016-122.67l-575.04-75.705z" fill="#ff758f"/>
      <path d="m2008 553.19-545.02-198.37c-1.438-0.523-2.252-2.045-1.888-3.532s1.788-2.461 3.306-2.261l575.04 75.705c1.642 0.216 2.799 1.723 2.582 3.366-5.539 42.076-15.656 83.421-30.171 123.3-0.567 1.557-2.288 2.359-3.845 1.793zm-0.775-6.667c13.484-37.655 23.017-76.61 28.443-116.24l-544.9-71.737z" fill="#0d1a16"/>
      <path d="m2009 550.37c14.44-39.675 24.505-80.807 30.016-122.67l-316.27-41.638c-2.48 18.837-7.009 37.347-13.507 55.2z" fill="#8c4151"/>
      <path d="m2008 553.19-299.76-109.1c-1.557-0.566-2.36-2.288-1.793-3.845 6.423-17.648 10.9-35.945 13.352-54.565 0.216-1.643 1.723-2.799 3.366-2.583l316.27 41.638c1.642 0.216 2.799 1.723 2.582 3.366-5.539 42.076-15.656 83.421-30.171 123.3-0.567 1.557-2.288 2.359-3.845 1.793zm-0.775-6.667c13.484-37.655 23.017-76.61 28.443-116.24l-310.33-40.856c-2.44 17.038-6.541 33.797-12.244 50.037z" fill="#0d1a16"/>
      <path d="m1192 721.33s28.654 21.334 64 21.334 64-21.334 64-21.334 28.654-21.333 64-21.333 64 21.333 64 21.333 28.654 21.334 64 21.334 64-21.334 64-21.334 28.654-21.333 64-21.333 64 21.333 64 21.333 28.654 21.334 64 21.334 64-21.334 64-21.334 28.654-21.333 64-21.333 64 21.333 64 21.333 28.654 21.334 64 21.334 64-21.334 64-21.334 28.654-21.333 64-21.333 64 9.551 64 21.333v468.45h-1152v-468.45c0-11.782 28.654-21.333 64-21.333s64 21.333 64 21.333z" fill="#7ee6cc"/>
      <path d="m1193.8 718.93s27.851 20.74 62.208 20.74 62.208-20.74 62.208-20.74 29.457-21.927 65.792-21.927 65.792 21.927 65.792 21.927 27.851 20.74 62.208 20.74 62.208-20.74 62.208-20.74 29.457-21.927 65.792-21.927 65.792 21.927 65.792 21.927 27.851 20.74 62.208 20.74 62.208-20.74 62.208-20.74 29.457-21.927 65.792-21.927 65.792 21.927 65.792 21.927 27.851 20.74 62.208 20.74 62.208-20.74 62.208-20.74 29.457-21.927 65.792-21.927c25.461 0 47.519 4.958 58.479 12.006 5.639 3.626 8.521 7.961 8.521 12.327v468.45c0 1.657-1.343 3-3 3h-1152c-1.657 0-3-1.343-3-3v-468.45c0-4.366 2.882-8.701 8.521-12.327 10.96-7.048 33.018-12.006 58.479-12.006 36.335 0 65.792 21.927 65.792 21.927zm-3.584 4.813s-27.851-20.74-62.208-20.74c-20.694 0-39.047 3.298-50.41 8.465-3.497 1.59-6.298 3.336-8.205 5.245-1.469 1.472-2.385 2.987-2.385 4.623v465.45h1146v-465.45c0-1.636-0.916-3.151-2.385-4.623-1.907-1.909-4.708-3.655-8.205-5.245-11.363-5.167-29.716-8.465-50.41-8.465-34.357 0-62.208 20.74-62.208 20.74s-29.457 21.927-65.792 21.927-65.792-21.927-65.792-21.927-27.851-20.74-62.208-20.74-62.208 20.74-62.208 20.74-29.457 21.927-65.792 21.927-65.792-21.927-65.792-21.927-27.851-20.74-62.208-20.74-62.208 20.74-62.208 20.74-29.457 21.927-65.792 21.927-65.792-21.927-65.792-21.927-27.851-20.74-62.208-20.74-62.208 20.74-62.208 20.74-29.457 21.927-65.792 21.927-65.792-21.927-65.792-21.927z" fill="#0d1a16"/>
      <path d="m1128 785.32s28.654 21.334 64 21.334 64-21.334 64-21.334 28.654-21.333 64-21.333 64 21.333 64 21.333 28.654 21.334 64 21.334 64-21.334 64-21.334 28.654-21.333 64-21.333 64 21.333 64 21.333 28.654 21.334 64 21.334 64-21.334 64-21.334 28.654-21.333 64-21.333 64 21.333 64 21.333 28.654 21.334 64 21.334 64-21.334 64-21.334 28.654-21.333 64-21.333 64 9.551 64 21.333v468.45h-1152v-468.45c0-11.782 28.654-21.333 64-21.333s64 21.333 64 21.333z" fill="#38665b"/>
      <path d="m1129.8 782.91s27.851 20.74 62.208 20.74 62.208-20.74 62.208-20.74 29.457-21.927 65.792-21.927 65.792 21.927 65.792 21.927 27.851 20.74 62.208 20.74 62.208-20.74 62.208-20.74 29.457-21.927 65.792-21.927 65.792 21.927 65.792 21.927 27.851 20.74 62.208 20.74 62.208-20.74 62.208-20.74 29.457-21.927 65.792-21.927 65.792 21.927 65.792 21.927 27.851 20.74 62.208 20.74 62.208-20.74 62.208-20.74 29.457-21.927 65.792-21.927c25.461 0 47.519 4.958 58.479 12.006 5.639 3.627 8.521 7.961 8.521 12.327v468.45c0 1.657-1.343 3-3 3h-1152c-1.657 0-3-1.343-3-3v-468.45c0-4.366 2.882-8.7 8.521-12.327 10.96-7.048 33.018-12.006 58.479-12.006 36.335 0 65.792 21.927 65.792 21.927zm-3.584 4.813s-27.851-20.74-62.208-20.74c-20.694 0-39.047 3.298-50.41 8.465-3.497 1.59-6.298 3.336-8.205 5.245-1.469 1.472-2.385 2.987-2.385 4.623v465.45h1146v-465.45c0-1.636-0.916-3.151-2.385-4.623-1.907-1.909-4.708-3.655-8.205-5.245-11.363-5.167-29.716-8.465-50.41-8.465-34.357 0-62.208 20.74-62.208 20.74s-29.457 21.927-65.792 21.927-65.792-21.927-65.792-21.927-27.851-20.74-62.208-20.74-62.208 20.74-62.208 20.74-29.457 21.927-65.792 21.927-65.792-21.927-65.792-21.927-27.851-20.74-62.208-20.74-62.208 20.74-62.208 20.74-29.457 21.927-65.792 21.927-65.792-21.927-65.792-21.927-27.851-20.74-62.208-20.74-62.208 20.74-62.208 20.74-29.457 21.927-65.792 21.927-65.792-21.927-65.792-21.927z" fill="#0d1a16"/>
      <path d="m1064 849.32s28.654 21.334 64 21.334 64-21.334 64-21.334 28.654-21.333 64-21.333 64 21.333 64 21.333 28.654 21.334 64 21.334 64-21.334 64-21.334 28.654-21.333 64-21.333 64 21.333 64 21.333 28.654 21.334 64 21.334 64-21.334 64-21.334 28.654-21.333 64-21.333 64 21.333 64 21.333 28.654 21.334 64 21.334 64-21.334 64-21.334 28.654-21.333 64-21.333 64 9.551 64 21.333v468.45h-1152v-468.45c0-11.782 28.654-21.333 64-21.333s64 21.333 64 21.333z" fill="#7ee6cc"/>
      <path d="m1065.8 846.91s27.851 20.74 62.208 20.74 62.208-20.74 62.208-20.74 29.457-21.927 65.792-21.927 65.792 21.927 65.792 21.927 27.851 20.74 62.208 20.74 62.208-20.74 62.208-20.74 29.457-21.927 65.792-21.927 65.792 21.927 65.792 21.927 27.851 20.74 62.208 20.74 62.208-20.74 62.208-20.74 29.457-21.927 65.792-21.927 65.792 21.927 65.792 21.927 27.851 20.74 62.208 20.74 62.208-20.74 62.208-20.74 29.457-21.927 65.792-21.927c25.461 0 47.519 4.958 58.479 12.006 5.639 3.627 8.521 7.961 8.521 12.327v468.45c0 1.657-1.343 3-3 3h-1152c-1.657 0-3-1.343-3-3v-468.45c0-4.366 2.882-8.7 8.521-12.327 10.96-7.048 33.018-12.006 58.479-12.006 36.335 0 65.792 21.927 65.792 21.927zm-3.584 4.813s-27.851-20.74-62.208-20.74c-20.694 0-39.047 3.298-50.41 8.465-3.497 1.59-6.298 3.336-8.205 5.245-1.469 1.472-2.385 2.987-2.385 4.623v465.45h1146v-465.45c0-1.636-0.916-3.151-2.385-4.623-1.907-1.909-4.708-3.655-8.205-5.245-11.363-5.167-29.716-8.465-50.41-8.465-34.357 0-62.208 20.74-62.208 20.74s-29.457 21.927-65.792 21.927-65.792-21.927-65.792-21.927-27.851-20.74-62.208-20.74-62.208 20.74-62.208 20.74-29.457 21.927-65.792 21.927-65.792-21.927-65.792-21.927-27.851-20.74-62.208-20.74-62.208 20.74-62.208 20.74-29.457 21.927-65.792 21.927-65.792-21.927-65.792-21.927-27.851-20.74-62.208-20.74-62.208 20.74-62.208 20.74-29.457 21.927-65.792 21.927-65.792-21.927-65.792-21.927z" fill="#0d1a16"/>
      <path d="m1128 913.32s28.654 21.334 64 21.334 64-21.334 64-21.334 28.654-21.333 64-21.333 64 21.333 64 21.333 28.654 21.334 64 21.334 64-21.334 64-21.334 28.654-21.333 64-21.333 64 21.333 64 21.333 28.654 21.334 64 21.334 64-21.334 64-21.334 28.654-21.333 64-21.333 64 21.333 64 21.333 28.654 21.334 64 21.334 64-21.334 64-21.334 28.654-21.333 64-21.333 64 9.551 64 21.333v468.45h-1152v-468.45c0-11.782 28.654-21.333 64-21.333s64 21.333 64 21.333z" fill="#38665b"/>
      <path d="m1129.8 910.91s27.851 20.74 62.208 20.74 62.208-20.74 62.208-20.74 29.457-21.927 65.792-21.927 65.792 21.927 65.792 21.927 27.851 20.74 62.208 20.74 62.208-20.74 62.208-20.74 29.457-21.927 65.792-21.927 65.792 21.927 65.792 21.927 27.851 20.74 62.208 20.74 62.208-20.74 62.208-20.74 29.457-21.927 65.792-21.927 65.792 21.927 65.792 21.927 27.851 20.74 62.208 20.74 62.208-20.74 62.208-20.74 29.457-21.927 65.792-21.927c25.461 0 47.519 4.958 58.479 12.006 5.639 3.627 8.521 7.961 8.521 12.327v468.45c0 1.657-1.343 3-3 3h-1152c-1.657 0-3-1.343-3-3v-468.45c0-4.366 2.882-8.7 8.521-12.327 10.96-7.048 33.018-12.006 58.479-12.006 36.335 0 65.792 21.927 65.792 21.927zm-3.584 4.813s-27.851-20.74-62.208-20.74c-20.694 0-39.047 3.298-50.41 8.465-3.497 1.59-6.298 3.336-8.205 5.245-1.469 1.472-2.385 2.987-2.385 4.623v465.45h1146v-465.45c0-1.636-0.916-3.151-2.385-4.623-1.907-1.909-4.708-3.655-8.205-5.245-11.363-5.167-29.716-8.465-50.41-8.465-34.357 0-62.208 20.74-62.208 20.74s-29.457 21.927-65.792 21.927-65.792-21.927-65.792-21.927-27.851-20.74-62.208-20.74-62.208 20.74-62.208 20.74-29.457 21.927-65.792 21.927-65.792-21.927-65.792-21.927-27.851-20.74-62.208-20.74-62.208 20.74-62.208 20.74-29.457 21.927-65.792 21.927-65.792-21.927-65.792-21.927-27.851-20.74-62.208-20.74-62.208 20.74-62.208 20.74-29.457 21.927-65.792 21.927-65.792-21.927-65.792-21.927z" fill="#0d1a16"/>
      <path d="m1192 977.32s28.654 21.334 64 21.334 64-21.334 64-21.334 28.654-21.333 64-21.333 64 21.333 64 21.333 28.654 21.334 64 21.334 64-21.334 64-21.334 28.654-21.333 64-21.333 64 21.333 64 21.333 28.654 21.334 64 21.334 64-21.334 64-21.334 28.654-21.333 64-21.333 64 21.333 64 21.333 28.654 21.334 64 21.334 64-21.334 64-21.334 28.654-21.333 64-21.333 64 9.551 64 21.333v468.45h-1152v-468.45c0-11.782 28.654-21.333 64-21.333s64 21.333 64 21.333z" fill="#7ee6cc"/>
      <path d="m1193.8 974.91s27.851 20.74 62.208 20.74 62.208-20.74 62.208-20.74 29.457-21.927 65.792-21.927 65.792 21.927 65.792 21.927 27.851 20.74 62.208 20.74 62.208-20.74 62.208-20.74 29.457-21.927 65.792-21.927 65.792 21.927 65.792 21.927 27.851 20.74 62.208 20.74 62.208-20.74 62.208-20.74 29.457-21.927 65.792-21.927 65.792 21.927 65.792 21.927 27.851 20.74 62.208 20.74 62.208-20.74 62.208-20.74 29.457-21.927 65.792-21.927c25.461 0 47.519 4.958 58.479 12.006 5.639 3.627 8.521 7.961 8.521 12.327v468.45c0 1.657-1.343 3-3 3h-1152c-1.657 0-3-1.343-3-3v-468.45c0-4.366 2.882-8.7 8.521-12.327 10.96-7.048 33.018-12.006 58.479-12.006 36.335 0 65.792 21.927 65.792 21.927zm-3.584 4.813s-27.851-20.74-62.208-20.74c-20.694 0-39.047 3.298-50.41 8.465-3.497 1.59-6.298 3.336-8.205 5.245-1.469 1.472-2.385 2.987-2.385 4.623v465.45h1146v-465.45c0-1.636-0.916-3.151-2.385-4.623-1.907-1.909-4.708-3.655-8.205-5.245-11.363-5.167-29.716-8.465-50.41-8.465-34.357 0-62.208 20.74-62.208 20.74s-29.457 21.927-65.792 21.927-65.792-21.927-65.792-21.927-27.851-20.74-62.208-20.74-62.208 20.74-62.208 20.74-29.457 21.927-65.792 21.927-65.792-21.927-65.792-21.927-27.851-20.74-62.208-20.74-62.208 20.74-62.208 20.74-29.457 21.927-65.792 21.927-65.792-21.927-65.792-21.927-27.851-20.74-62.208-20.74-62.208 20.74-62.208 20.74-29.457 21.927-65.792 21.927-65.792-21.927-65.792-21.927z" fill="#0d1a16"/>
      <circle cx="1464" cy="352" r="104" fill="#f2d479"/>
      <path d="m1464 242c60.711 0 110 49.289 110 110s-49.289 110-110 110-110-49.289-110-110 49.289-110 110-110zm0 6c-57.399 0-104 46.601-104 104s46.601 104 104 104 104-46.601 104-104-46.601-104-104-104z" fill="#0d1a16"/>
      <path d="m1464 256 12.123 66.731 55.759-38.613-38.613 55.759 66.731 12.123-66.731 12.123 38.613 55.759-55.759-38.613-12.123 66.731-12.123-66.731-55.759 38.613 38.613-55.759-66.731-12.123 66.731-12.123-38.613-55.759 55.759 38.613z" fill="#e7ffff"/>
      <path d="m1469.9 254.93 10.459 57.57 48.104-33.313c2.384-1.651 5.608-1.361 7.659 0.69s2.341 5.275 0.69 7.659l-33.313 48.104 57.57 10.459c2.854 0.518 4.928 3.003 4.928 5.903s-2.074 5.385-4.928 5.903l-57.57 10.459 33.313 48.104c1.651 2.384 1.361 5.608-0.69 7.659s-5.275 2.341-7.659 0.69l-48.104-33.313-10.459 57.57c-0.518 2.854-3.003 4.928-5.903 4.928s-5.385-2.074-5.903-4.928l-10.459-57.57-48.104 33.313c-2.384 1.651-5.608 1.361-7.659-0.69s-2.341-5.275-0.69-7.659l33.313-48.104-57.57-10.459c-2.854-0.518-4.928-3.003-4.928-5.903s2.074-5.385 4.928-5.903l57.57-10.459-33.313-48.104c-1.651-2.384-1.361-5.608 0.69-7.659s5.275-2.341 7.659-0.69l48.104 33.313 10.459-57.57c0.518-2.854 3.003-4.928 5.903-4.928s5.385 2.074 5.903 4.928zm-5.903 1.072-12.123 66.731-55.759-38.613 38.613 55.759-66.731 12.123 66.731 12.123-38.613 55.759 55.759-38.613 12.123 66.731 12.123-66.731 55.759 38.613-38.613-55.759 66.731-12.123-66.731-12.123 38.613-55.759-55.759 38.613z" fill="#0d1a16"/>
      <path d="m1272 768c0 105.97 86.032 192 192 192s192-86.032 192-192c-16 79.476-96.524 144-192 144s-176-64.524-192-144z" fill="#e7ffff"/>
      <path d="m1277.9 766.82c15.494 76.961 93.664 139.18 186.12 139.18s170.62-62.223 186.12-139.18c0.609-3.023 3.409-5.092 6.477-4.786 3.068 0.305 5.405 2.887 5.405 5.97 0 109.28-88.721 198-198 198s-198-88.721-198-198c0-3.083 2.337-5.665 5.405-5.97 3.068-0.306 5.868 1.763 6.477 4.786zm-5.882 1.184c0 105.97 86.032 192 192 192s192-86.032 192-192c-16 79.476-96.524 144-192 144s-176-64.524-192-144z" fill="#0d1a16"/>
    </g>
    <path d="m1848 540v512h-768v-512c0-282.77 171.92-512 384-512s384 229.23 384 512zm-24 0c0-78.287-14.057-152.2-38.988-217.49-59.492-155.8-180.9-262.51-321.01-262.51-21.611 0-42.778 2.539-63.341 7.406-46.006 10.888-88.991 33.426-127.18 65.246-18.1 15.083-35.123 32.25-50.879 51.25-72.837 87.835-118.6 214.84-118.6 356.1v480h720z" fill="#95b1ae"/>
    <path d="m1860 540v512c0 6.627-5.373 12-12 12h-768c-6.627 0-12-5.373-12-12v-512c0-290.19 178.35-524 396-524s396 233.81 396 524zm-12 0c0-282.77-171.92-512-384-512s-384 229.23-384 512v512h768zm-24 0v480h-720v-480c0-141.26 45.763-268.26 118.6-356.1 15.756-19 32.779-36.167 50.879-51.25 38.189-31.82 81.174-54.358 127.18-65.246 20.563-4.867 41.73-7.406 63.341-7.406 140.11 0 261.52 106.72 321.01 262.51 24.931 65.291 38.988 139.2 38.988 217.49zm-12 0c0-76.745-13.758-149.2-38.199-213.21-57.545-150.7-174.28-254.79-309.8-254.79-20.668 0-40.911 2.429-60.577 7.083-44.237 10.469-85.542 32.192-122.26 62.789-17.548 14.622-34.048 31.269-49.323 49.69-71.258 85.93-115.84 210.24-115.84 348.44v468h696z" fill="#2f3c39"/>
  </g>
</svg>
