<?xml version="1.0" encoding="UTF-8"?>
<svg xmlns="http://www.w3.org/2000/svg" xmlns:l="http://www.w3.org/1999/xlink" version="1.1" width="200mm" height="200mm" viewBox="0 0 200 200" color-profile="auto" color-interpolation="linearRGB" color-interpolation-filters="linearRGB"><g fill="none" stroke-miterlimit="9.98123" transform="matrix(51.9695 0 0 -51.9695 95.3669 82.8572)"><defs><path id="i1" d="M-1.83506 -2.25407L2.01336 -2.25407L2.01336 1.59434L-1.83506 1.59434Z"/></defs><use l:href="#i1" fill="#000000" fill-opacity="0"/><use l:href="#i1" fill="#0D1A16"/><defs><path id="i2" d="M-0.441937 0.729662L-0.276234 0.456077L-0.242213 -1.42907L-0.36085 -2.12903L-0.441937 0.729662M1.90017 1.13949L1.30615 0.783272L1.16923 -0.855624L1.62357 -1.1881L1.90017 1.13949M-1.72187 1.26004L-1.21936 0.892309L-1.09919 -0.659161L-1.4916 -0.894479L-1.72187 1.26004M0.249033 1.46931L0.186119 1.09811L0.170028 -0.280726L0.221043 -0.364953L0.249033 1.46931M-1.09919 -0.659161L-0.242213 -1.42907L-0.36085 -2.12903L-1.4916 -0.894479L-1.09919 -0.659161M-1.09919 -0.659161L0.170028 -0.280726L0.221043 -0.364953L-1.4916 -0.894479L-1.09919 -0.659161M1.62357 -1.1881L1.16923 -0.855624L-0.242213 -1.42907L-0.36085 -2.12903L1.62357 -1.1881M1.62357 -1.1881L1.16923 -0.855624L0.170028 -0.280726L0.221043 -0.364953L1.62357 -1.1881M-1.21936 0.892309L0.186119 1.09811L0.249033 1.46931L-1.72187 1.26004L-1.21936 0.892309M-1.21936 0.892309L-0.276234 0.456077L-0.441937 0.729662L-1.72187 1.26004L-1.21936 0.892309M1.90017 1.13949L1.30615 0.783272L-0.276234 0.456077L-0.441937 0.729662L1.90017 1.13949M1.90017 1.13949L1.30615 0.783272L0.186119 1.09811L0.249033 1.46931L1.90017 1.13949M-0.242213 -1.42907L1.16923 -0.855624L0.170028 -0.280726L-1.09919 -0.659161L-0.242213 -1.42907M-0.242213 -1.42907L-0.276234 0.456077L-1.21936 0.892309L-1.09919 -0.659161L-0.242213 -1.42907M-0.242213 -1.42907L-0.276234 0.456077L1.30615 0.783272L1.16923 -0.855624L-0.242213 -1.42907M0.186119 1.09811L-1.21936 0.892309L-0.276234 0.456077L1.30615 0.783272L0.186119 1.09811M0.186119 1.09811L0.170028 -0.280726L1.16923 -0.855624L1.30615 0.783272L0.186119 1.09811M0.186119 1.09811L0.170028 -0.280726L-1.09919 -0.659161L-1.21936 0.892309L0.186119 1.09811M-0.36085 -2.12903L1.62357 -1.1881L0.221043 -0.364953L-1.4916 -0.894479L-0.36085 -2.12903M-0.36085 -2.12903L-0.441937 0.729662L-1.72187 1.26004L-1.4916 -0.894479L-0.36085 -2.12903M-0.36085 -2.12903L-0.441937 0.729662L1.90017 1.13949L1.62357 -1.1881L-0.36085 -2.12903M0.249033 1.46931L-1.72187 1.26004L-0.441937 0.729662L1.90017 1.13949L0.249033 1.46931M0.249033 1.46931L0.221043 -0.364953L1.62357 -1.1881L1.90017 1.13949L0.249033 1.46931M0.249033 1.46931L0.221043 -0.364953L-1.4916 -0.894479L-1.72187 1.26004L0.249033 1.46931"/></defs><use l:href="#i2" stroke-width="0.00962103" stroke-linecap="round" stroke-linejoin="round" stroke="#E7FFFF"/></g></svg>